<!DOCTYPE svg PUBLIC "-//W3C//DTD SVG 20010904//EN" "http://www.w3.org/TR/2001/REC-SVG-20010904/DTD/svg10.dtd">
<svg version="1.0" xmlns="http://www.w3.org/2000/svg" width="690px" height="202px" viewBox="0 0 6900 2020" preserveAspectRatio="xMidYMid meet">
<g id="layer101" fill="#f16039" stroke="none">
 <path d="M787 1503 c-4 -3 -7 -177 -7 -385 l0 -378 85 0 c79 0 85 1 85 21 0 11 3 19 8 17 86 -45 107 -50 164 -44 156 16 257 143 246 311 -8 127 -85 225 -201 256 -59 16 -141 7 -177 -19 -16 -12 -32 -22 -35 -22 -3 0 -5 56 -5 125 l0 125 -78 0 c-43 0 -82 -3 -85 -7z m350 -363 c53 -32 69 -70 65 -152 -3 -39 -47 -86 -93 -98 -49 -13 -95 -1 -129 35 -32 34 -40 125 -15 171 32 60 112 81 172 44z"/>
 <path d="M256 1290 c-107 -42 -169 -140 -170 -270 0 -119 49 -206 148 -258 70 -36 173 -38 229 -4 37 23 37 23 37 3 0 -20 6 -21 85 -21 l85 0 0 280 0 280 -85 0 c-77 0 -85 -2 -85 -19 0 -19 -2 -19 -42 4 -53 31 -132 32 -202 5z m192 -150 c42 -26 66 -80 59 -138 -6 -57 -34 -93 -84 -111 -37 -13 -45 -13 -87 3 -56 22 -78 51 -83 114 -10 114 102 189 195 132z"/>
 <path d="M2220 1301 c-96 -31 -178 -108 -201 -188 -41 -146 18 -286 149 -350 48 -24 70 -28 137 -28 58 0 90 5 115 19 43 22 110 85 110 103 0 7 -27 26 -60 43 l-60 30 -28 -20 c-82 -61 -195 -9 -209 97 -8 59 20 111 71 134 53 24 83 24 130 -2 l39 -21 64 27 c34 15 63 31 63 35 0 17 -78 84 -119 103 -49 22 -160 32 -201 18z"/>
 <path d="M2761 1279 c-68 -34 -103 -73 -132 -149 -54 -142 7 -306 141 -376 54 -29 178 -26 219 4 37 27 41 27 41 2 0 -18 7 -20 85 -20 l85 0 0 280 0 280 -85 0 -85 0 0 -27 0 -26 -22 21 c-57 53 -154 57 -247 11z m197 -130 c72 -25 99 -155 46 -218 -55 -65 -155 -61 -202 9 -20 29 -23 44 -20 92 5 63 23 92 73 114 37 16 63 17 103 3z"/>
 <path d="M3476 1299 c-89 -22 -108 -65 -114 -266 l-4 -153 -40 0 -39 0 3 -67 3 -68 38 -3 37 -3 0 -65 0 -64 90 0 90 0 0 65 0 64 58 3 57 3 3 68 3 67 -61 0 -61 0 3 133 3 132 58 3 57 3 0 68 c0 51 -4 70 -14 74 -31 12 -133 16 -170 6z"/>
 <path d="M4750 1294 c-46 -20 -77 -50 -103 -99 -20 -37 -22 -58 -25 -247 l-3 -208 85 0 86 0 0 169 c0 98 5 181 11 200 23 65 105 64 164 0 l35 -39 0 -165 0 -165 90 0 90 0 0 280 0 280 -90 0 -90 0 0 -39 0 -38 -34 31 c-56 53 -147 70 -216 40z"/>
 <path d="M5455 1301 c-44 -11 -80 -37 -96 -69 -9 -18 -14 -79 -17 -189 l-4 -163 -39 0 -39 0 0 -70 0 -70 40 0 40 0 0 -65 0 -65 85 0 85 0 0 65 0 65 60 0 60 0 0 70 0 70 -60 0 -60 0 0 123 c0 82 4 127 12 135 7 7 34 12 60 12 l48 0 0 69 c0 39 -4 72 -8 75 -16 10 -137 15 -167 7z"/>
 <path d="M6460 1294 c-118 -42 -187 -131 -197 -252 -7 -96 20 -165 93 -231 116 -106 283 -108 388 -6 58 56 79 105 84 198 l5 77 -197 0 c-108 0 -196 4 -196 8 0 5 14 21 30 37 26 25 40 30 94 33 35 2 80 -1 100 -8 34 -11 38 -10 81 26 26 21 45 44 43 53 -2 9 -28 29 -58 46 -46 24 -68 30 -140 32 -60 2 -98 -2 -130 -13z m210 -342 c0 -5 -13 -21 -29 -36 -42 -40 -104 -46 -151 -14 -19 13 -36 31 -38 41 -3 15 8 17 107 17 61 0 111 -4 111 -8z"/>
 <path d="M1460 920 l0 -380 85 0 85 0 0 380 0 380 -85 0 -85 0 0 -380z"/>
 <path d="M1740 1020 l0 -280 85 0 85 0 0 280 0 280 -85 0 -85 0 0 -280z"/>
 <path d="M3745 1287 c-3 -7 -4 -131 -3 -277 l3 -265 88 -3 87 -3 0 281 0 280 -85 0 c-60 0 -87 -4 -90 -13z"/>
 <path d="M4020 1020 l0 -280 90 0 90 0 0 280 0 280 -90 0 -90 0 0 -280z"/>
 <path d="M5720 1020 l0 -280 85 0 85 0 0 280 0 280 -85 0 -85 0 0 -280z"/>
 <path d="M6000 920 l0 -380 85 0 85 0 0 380 0 380 -85 0 -85 0 0 -380z"/>
 <path d="M1747 683 c-4 -3 -7 -37 -7 -75 l0 -68 85 0 85 0 0 75 0 75 -78 0 c-43 0 -82 -3 -85 -7z"/>
 <path d="M3744 677 c-3 -8 -4 -41 -2 -73 l3 -59 88 -3 88 -3 -3 73 -3 73 -83 3 c-63 2 -84 0 -88 -11z"/>
 <path d="M4027 684 c-4 -4 -7 -38 -7 -76 l0 -68 90 0 91 0 -3 73 -3 72 -80 3 c-45 1 -84 0 -88 -4z"/>
 <path d="M5720 615 l0 -75 85 0 85 0 0 75 0 75 -85 0 -85 0 0 -75z"/>
 </g>
<g id="layer102" fill="#f79a3e" stroke="none">
 <path d="M4750 1294 c-46 -20 -77 -50 -103 -99 -20 -37 -22 -58 -25 -247 l-3 -208 85 0 86 0 0 169 c0 98 5 181 11 200 23 65 105 64 164 0 l35 -39 0 -165 0 -165 90 0 90 0 0 280 0 280 -90 0 -90 0 0 -39 0 -38 -34 31 c-56 53 -147 70 -216 40z"/>
 <path d="M5455 1301 c-44 -11 -80 -37 -96 -69 -9 -18 -14 -79 -17 -189 l-4 -163 -39 0 -39 0 0 -70 0 -70 40 0 40 0 0 -65 0 -65 85 0 85 0 0 65 0 65 60 0 60 0 0 70 0 70 -60 0 -60 0 0 123 c0 82 4 127 12 135 7 7 34 12 60 12 l48 0 0 69 c0 39 -4 72 -8 75 -16 10 -137 15 -167 7z"/>
 <path d="M6460 1294 c-118 -42 -187 -131 -197 -252 -7 -96 20 -165 93 -231 116 -106 283 -108 388 -6 58 56 79 105 84 198 l5 77 -197 0 c-108 0 -196 4 -196 8 0 5 14 21 30 37 26 25 40 30 94 33 35 2 80 -1 100 -8 34 -11 38 -10 81 26 26 21 45 44 43 53 -2 9 -28 29 -58 46 -46 24 -68 30 -140 32 -60 2 -98 -2 -130 -13z m210 -342 c0 -5 -13 -21 -29 -36 -42 -40 -104 -46 -151 -14 -19 13 -36 31 -38 41 -3 15 8 17 107 17 61 0 111 -4 111 -8z"/>
 <path d="M3745 1287 c-3 -7 -4 -131 -3 -277 l3 -265 88 -3 87 -3 0 281 0 280 -85 0 c-60 0 -87 -4 -90 -13z"/>
 <path d="M4020 1020 l0 -280 90 0 90 0 0 280 0 280 -90 0 -90 0 0 -280z"/>
 <path d="M5720 1020 l0 -280 85 0 85 0 0 280 0 280 -85 0 -85 0 0 -280z"/>
 <path d="M6000 920 l0 -380 85 0 85 0 0 380 0 380 -85 0 -85 0 0 -380z"/>
 <path d="M3744 677 c-3 -8 -4 -41 -2 -73 l3 -59 88 -3 88 -3 -3 73 -3 73 -83 3 c-63 2 -84 0 -88 -11z"/>
 <path d="M4027 684 c-4 -4 -7 -38 -7 -76 l0 -68 90 0 91 0 -3 73 -3 72 -80 3 c-45 1 -84 0 -88 -4z"/>
 <path d="M5720 615 l0 -75 85 0 85 0 0 75 0 75 -85 0 -85 0 0 -75z"/>
 </g>

</svg>