<!DOCTYPE svg PUBLIC "-//W3C//DTD SVG 20010904//EN" "http://www.w3.org/TR/2001/REC-SVG-20010904/DTD/svg10.dtd">
<svg version="1.0" xmlns="http://www.w3.org/2000/svg" width="153px" height="174px" viewBox="0 0 1530 1740" preserveAspectRatio="xMidYMid meet">
<g id="layer101" fill="#d23e32" stroke="none">
 <path d="M419 1495 l-354 -202 0 -418 0 -417 354 -204 354 -203 41 24 c23 13 180 104 351 202 l310 179 0 419 0 419 -351 201 -352 202 -353 -202z m671 -83 l305 -178 0 -359 0 -359 -305 -178 c-168 -98 -310 -178 -317 -178 -6 0 -149 79 -317 176 l-306 177 0 362 0 362 303 175 c166 97 309 176 317 177 8 0 152 -80 320 -177z"/>
 <path d="M723 1504 l-43 -25 0 -380 0 -379 90 0 90 0 0 383 0 383 -39 22 c-48 27 -47 27 -98 -4z"/>
 <path d="M940 961 l0 -481 95 0 95 0 0 425 0 424 -72 42 c-40 23 -83 49 -95 57 l-23 14 0 -481z"/>
 <path d="M503 1378 l-83 -50 0 -229 0 -229 90 0 90 0 0 280 c0 154 -3 280 -7 279 -5 0 -45 -23 -90 -51z"/>
 </g>
<g id="layer102" fill="#f26539" stroke="none">
 <path d="M748 1681 c-13 -9 -34 -22 -48 -29 -14 -7 -43 -23 -65 -37 -22 -13 -53 -31 -70 -39 -16 -9 -48 -27 -70 -40 -22 -14 -53 -32 -70 -41 -16 -8 -48 -27 -70 -40 -22 -14 -53 -32 -70 -41 -16 -8 -48 -26 -70 -39 -22 -13 -52 -31 -67 -40 l-28 -16 0 -444 0 -444 27 -16 c16 -9 46 -27 68 -40 22 -13 54 -31 70 -39 17 -9 44 -25 60 -36 17 -11 44 -27 60 -36 17 -8 48 -26 70 -40 22 -13 51 -30 65 -37 14 -7 43 -24 65 -38 40 -26 56 -35 132 -75 l40 -21 349 202 349 201 0 419 0 419 -352 202 c-346 198 -353 202 -375 185z m342 -269 l305 -178 0 -359 0 -359 -305 -178 c-168 -98 -310 -178 -316 -178 -6 0 -31 11 -55 25 -24 14 -57 32 -74 41 -16 8 -48 26 -70 40 -22 13 -53 31 -70 39 -16 9 -48 27 -70 40 -22 13 -53 31 -70 39 -16 9 -43 25 -60 36 -16 10 -43 26 -60 35 -16 9 -47 25 -67 35 l-38 20 0 366 0 365 33 15 c17 9 50 26 72 39 22 13 54 31 70 40 17 8 44 24 60 35 32 21 81 49 130 75 17 9 48 27 70 40 22 13 54 31 70 39 17 9 48 27 70 40 22 13 47 24 55 25 8 0 152 -80 320 -177z"/>
 <path d="M739 1512 c-13 -10 -32 -21 -41 -25 -17 -6 -18 -34 -18 -387 l0 -380 90 0 90 0 0 383 0 383 -39 22 c-47 27 -52 27 -82 4z"/>
 <path d="M940 961 l0 -481 95 0 95 0 0 425 0 424 -72 42 c-40 23 -83 49 -95 57 l-23 14 0 -481z"/>
 <path d="M565 1410 c-59 -37 -80 -49 -112 -65 l-33 -15 0 -230 0 -230 90 0 90 0 0 280 c0 154 -1 280 -2 279 -2 0 -16 -9 -33 -19z"/>
 </g>
<g id="layer103" fill="#f8963e" stroke="none">
 <path d="M839 1643 c-6 -55 -3 -70 18 -90 12 -13 28 -23 34 -23 7 0 20 -7 30 -16 9 -8 39 -27 67 -42 27 -15 94 -54 148 -86 55 -32 135 -80 179 -106 l80 -47 0 -358 0 -359 -220 -128 c-121 -70 -231 -136 -245 -147 -14 -10 -35 -21 -47 -25 -31 -10 -42 -28 -46 -74 -3 -39 -2 -42 17 -36 12 3 32 13 46 22 28 18 60 36 135 76 28 14 138 77 245 139 l195 113 0 419 0 419 -275 158 c-151 87 -279 158 -283 158 -5 0 -20 9 -34 20 -27 21 -42 25 -44 13z"/>
 <path d="M839 1480 c0 -5 -1 -174 -1 -375 0 -421 -1 -385 12 -385 6 0 10 135 10 385 0 250 -4 385 -10 385 -5 0 -10 -4 -11 -10z"/>
 <path d="M940 961 l0 -481 95 0 95 0 0 425 0 424 -72 42 c-40 23 -83 49 -95 57 l-23 14 0 -481z"/>
 </g>

</svg>