<svg width="500" height="87"><defs id="SvgjsDefs13956"><linearGradient id="SvgjsLinearGradient13960"><stop id="SvgjsStop13961" stop-color="#7d141d" offset="0"></stop><stop id="SvgjsStop13962" stop-color="#ff1e27" offset="1"></stop></linearGradient><linearGradient id="SvgjsLinearGradient13963"><stop id="SvgjsStop13964" stop-color="#7d141d" offset="0"></stop><stop id="SvgjsStop13965" stop-color="#ff1e27" offset="1"></stop></linearGradient></defs><g id="SvgjsG13957" featurekey="root" fill="#162c5e"></g><g id="SvgjsG13958" featurekey="symbol1" fill="url(#SvgjsLinearGradient13963)" transform="matrix(0.9360450169044047,0,0,0.9360450169044047,-6.55218657210964,-3.5522579866769703)"><g xmlns="http://www.w3.org/2000/svg" transform="translate(0,-952.36218)"><path style="text-indent:0;text-transform:none;direction:ltr;block-progression:tb;baseline-shift:baseline;color:;enable-background:accumulate;" d="M 7.8125,7 C 7.3540975,7.0874665 6.9917766,7.5334 7,8 l 0,36 c 5.24e-5,0.523584 0.4764155,0.999948 1,1 l 36,0 c 0.523584,-5.2e-5 0.999948,-0.476416 1,-1 L 45,8 C 44.999948,7.4764155 44.523584,7.0000524 44,7 L 29,7 c -0.528313,-0.00747 -1.014242,0.4716346 -1.014242,1 0,0.5283654 0.485929,1.0074717 1.014242,1 L 43,9 43,43 9,43 9,9 23,9 c 0.528313,0.00747 1.014242,-0.4716346 1.014242,-1 C 24.014242,7.4716346 23.528313,6.9925283 23,7 17.943875,6.9999952 12.854081,7 7.8125,7 z m 0.125,48 C 7.4350953,55.031508 6.9990633,55.496609 7,56 l 0,36 c 5.24e-5,0.523584 0.4764155,0.999948 1,1 l 36,0 c 0.523584,-5.2e-5 0.999948,-0.476416 1,-1 l 0,-36 c -5.2e-5,-0.523584 -0.476416,-0.999948 -1,-1 L 8,55 c -0.020827,-6.51e-4 -0.041673,-6.51e-4 -0.0625,0 z M 56,55 c -0.523584,5.2e-5 -0.999948,0.476416 -1,1 l 0,36 c 5.2e-5,0.523584 0.476416,0.999948 1,1 l 36,0 c 0.523584,-5.2e-5 0.999948,-0.476416 1,-1 l 0,-36 c -5.2e-5,-0.523584 -0.476416,-0.999948 -1,-1 z m -47,2 34,0 0,34 -34,0 z m 48,0 34,0 0,34 -34,0 z" transform="translate(0,952.36218)" fill="url(#SvgjsLinearGradient13963)" fill-opacity="1" stroke="none" marker="none" visibility="visible" display="inline" overflow="visible"></path></g></g><g id="SvgjsG13959" featurekey="text1" fill="url(#SvgjsLinearGradient13960)" transform="matrix(3.488737531045621,0,0,3.488737531045621,97.99968671311878,-19.584499320488323)"><path d="M5.12 22.66 q0.66 0 1.17 -0.03 t0.85 -0.11 l0 -3.1 q-0.2 -0.1 -0.65 -0.17 t-1.09 -0.07 q-0.42 0 -0.89 0.06 t-0.86 0.25 t-0.65 0.52 t-0.26 0.87 q0 1 0.64 1.39 t1.74 0.39 z M4.96 13.34 q1.12 0 1.89 0.29 t1.24 0.82 t0.67 1.26 t0.2 1.61 l0 6.5 q-0.24 0.04 -0.67 0.11 t-0.97 0.13 t-1.17 0.11 t-1.25 0.05 q-0.88 0 -1.62 -0.18 t-1.28 -0.57 t-0.84 -1.03 t-0.3 -1.54 q0 -0.86 0.35 -1.48 t0.95 -1 t1.4 -0.56 t1.68 -0.18 q0.28 0 0.58 0.03 t0.57 0.08 t0.47 0.09 t0.28 0.06 l0 -0.52 q0 -0.46 -0.1 -0.91 t-0.36 -0.8 t-0.71 -0.56 t-1.17 -0.21 q-0.92 0 -1.61 0.13 t-1.03 0.27 l-0.22 -1.54 q0.36 -0.16 1.2 -0.31 t1.82 -0.15 z M19.259999999999998 18.82 q0 -1.82 -0.9 -2.8 t-2.4 -0.98 q-0.84 0 -1.31 0.06 t-0.75 0.14 l0 6.56 q0.34 0.28 0.98 0.54 t1.4 0.26 q0.8 0 1.37 -0.29 t0.93 -0.8 t0.52 -1.2 t0.16 -1.49 z M21.2 18.82 q0 1.18 -0.31 2.18 t-0.91 1.72 t-1.47 1.12 t-1.99 0.4 q-0.9 0 -1.59 -0.24 t-1.03 -0.46 l0 4.16 l-1.86 0 l0 -13.78 q0.66 -0.16 1.65 -0.35 t2.29 -0.19 q1.2 0 2.16 0.38 t1.64 1.08 t1.05 1.71 t0.37 2.27 z M26.939999999999998 24.2 q-1.72 -0.04 -2.44 -0.74 t-0.72 -2.18 l0 -12.48 l1.86 -0.32 l0 12.5 q0 0.46 0.08 0.76 t0.26 0.48 t0.48 0.27 t0.74 0.15 z M31.14 24 l-1.86 0 l0 -10.4 l1.86 0 l0 10.4 z M30.2 11.72 q-0.5 0 -0.85 -0.33 t-0.35 -0.89 t0.35 -0.89 t0.85 -0.33 t0.85 0.33 t0.35 0.89 t-0.35 0.89 t-0.85 0.33 z M38.86 24.24 q-1.26 0 -2.21 -0.4 t-1.6 -1.12 t-0.97 -1.71 t-0.32 -2.19 t0.35 -2.2 t0.99 -1.73 t1.57 -1.14 t2.07 -0.41 q0.7 0 1.4 0.12 t1.34 0.38 l-0.42 1.58 q-0.42 -0.2 -0.97 -0.32 t-1.17 -0.12 q-1.56 0 -2.39 0.98 t-0.83 2.86 q0 0.84 0.19 1.54 t0.6 1.2 t1.05 0.77 t1.56 0.27 q0.74 0 1.34 -0.14 t0.94 -0.3 l0.26 1.56 q-0.16 0.1 -0.46 0.19 t-0.68 0.16 t-0.81 0.12 t-0.83 0.05 z M47.160000000000004 22.66 q0.66 0 1.17 -0.03 t0.85 -0.11 l0 -3.1 q-0.2 -0.1 -0.65 -0.17 t-1.09 -0.07 q-0.42 0 -0.89 0.06 t-0.86 0.25 t-0.65 0.52 t-0.26 0.87 q0 1 0.64 1.39 t1.74 0.39 z M47.00000000000001 13.34 q1.12 0 1.89 0.29 t1.24 0.82 t0.67 1.26 t0.2 1.61 l0 6.5 q-0.24 0.04 -0.67 0.11 t-0.97 0.13 t-1.17 0.11 t-1.25 0.05 q-0.88 0 -1.62 -0.18 t-1.28 -0.57 t-0.84 -1.03 t-0.3 -1.54 q0 -0.86 0.35 -1.48 t0.95 -1 t1.4 -0.56 t1.68 -0.18 q0.28 0 0.58 0.03 t0.57 0.08 t0.47 0.09 t0.28 0.06 l0 -0.52 q0 -0.46 -0.1 -0.91 t-0.36 -0.8 t-0.71 -0.56 t-1.17 -0.21 q-0.92 0 -1.61 0.13 t-1.03 0.27 l-0.22 -1.54 q0.36 -0.16 1.2 -0.31 t1.82 -0.15 z M55.82000000000001 13.6 l3.94 0 l0 1.56 l-3.94 0 l0 4.8 q0 0.78 0.12 1.29 t0.36 0.8 t0.6 0.41 t0.84 0.12 q0.84 0 1.35 -0.19 t0.71 -0.27 l0.36 1.54 q-0.28 0.14 -0.98 0.35 t-1.6 0.21 q-1.06 0 -1.75 -0.27 t-1.11 -0.81 t-0.59 -1.33 t-0.17 -1.83 l0 -9.28 l1.86 -0.32 l0 3.22 z M63.980000000000004 24 l-1.86 0 l0 -10.4 l1.86 0 l0 10.4 z M63.040000000000006 11.72 q-0.5 0 -0.85 -0.33 t-0.35 -0.89 t0.35 -0.89 t0.85 -0.33 t0.85 0.33 t0.35 0.89 t-0.35 0.89 t-0.85 0.33 z M69.03999999999999 24 l-1.86 0 l0 -10.4 l1.86 0 l0 10.4 z M68.1 11.72 q-0.5 0 -0.85 -0.33 t-0.35 -0.89 t0.35 -0.89 t0.85 -0.33 t0.85 0.33 t0.35 0.89 t-0.35 0.89 t-0.85 0.33 z  M85.14 23.7 q-0.64 0.16 -1.69 0.34 t-2.43 0.18 q-1.2 0 -2.02 -0.35 t-1.32 -0.99 t-0.72 -1.51 t-0.22 -1.93 l0 -5.84 l1.86 0 l0 5.44 q0 1.9 0.6 2.72 t2.02 0.82 q0.3 0 0.62 -0.02 t0.6 -0.05 t0.51 -0.06 t0.33 -0.07 l0 -8.78 l1.86 0 l0 10.1 z M90.08000000000001 13.6 l3.94 0 l0 1.56 l-3.94 0 l0 4.8 q0 0.78 0.12 1.29 t0.36 0.8 t0.6 0.41 t0.84 0.12 q0.84 0 1.35 -0.19 t0.71 -0.27 l0.36 1.54 q-0.28 0.14 -0.98 0.35 t-1.6 0.21 q-1.06 0 -1.75 -0.27 t-1.11 -0.81 t-0.59 -1.33 t-0.17 -1.83 l0 -9.28 l1.86 -0.32 l0 3.22 z M98.24000000000001 24 l-1.86 0 l0 -10.4 l1.86 0 l0 10.4 z M97.30000000000001 11.72 q-0.5 0 -0.85 -0.33 t-0.35 -0.89 t0.35 -0.89 t0.85 -0.33 t0.85 0.33 t0.35 0.89 t-0.35 0.89 t-0.85 0.33 z M104.56000000000002 24.2 q-1.72 -0.04 -2.44 -0.74 t-0.72 -2.18 l0 -12.48 l1.86 -0.32 l0 12.5 q0 0.46 0.08 0.76 t0.26 0.48 t0.48 0.27 t0.74 0.15 z M106.32000000000001 18.82 q0 -1.38 0.4 -2.41 t1.06 -1.71 t1.52 -1.02 t1.76 -0.34 q2.1 0 3.22 1.31 t1.12 3.99 l0 0.31 t-0.02 0.35 l-7.12 0 q0.12 1.62 0.94 2.46 t2.56 0.84 q0.98 0 1.65 -0.17 t1.01 -0.33 l0.26 1.56 q-0.34 0.18 -1.19 0.38 t-1.93 0.2 q-1.36 0 -2.35 -0.41 t-1.63 -1.13 t-0.95 -1.71 t-0.31 -2.17 z M113.46000000000001 17.8 q0.02 -1.26 -0.63 -2.07 t-1.79 -0.81 q-0.64 0 -1.13 0.25 t-0.83 0.65 t-0.53 0.92 t-0.25 1.06 l5.16 0 z"></path></g></svg>