<svg id="draw.id" overflow="visible" v:layers="{&quot;default&quot;:{&quot;name&quot;:&quot;Default&quot;,&quot;print&quot;:1,&quot;display&quot;:1,&quot;publish&quot;:1}}" v:ver="2" x="500.5" xmlns="http://www.w3.org/2000/svg" xmlns:v="http://vecta.io" xmlns:xlink="http://www.w3.org/1999/xlink" y="500.5"><style xmlns="http://www.w3.org/1999/xhtml"><![CDATA[#draw\.id{stroke:#000;stroke-linecap:round;stroke-linejoin:round;fill:#fff;fill-rule:evenodd;font-family:Roboto;font-size:14px;text-anchor:middle}#draw\.id text{stroke:none}]]></style><defs><style type="text/css">@import url('https://fonts.googleapis.com/css?family=Roboto+Condensed:400,400i,700,700i');@import url('https://fonts.googleapis.com/css?family=Roboto:400,400i,700,700i');@import url('https://fonts.googleapis.com/css?family=Cousine:400,400i,700,700i');@import url('https://fonts.googleapis.com/css?family=Anonymous+Pro:400,400i,700,700i');@import url('https://fonts.googleapis.com/css?family=Lato:400,400i,700,700i');@import url('https://fonts.googleapis.com/css?family=Open+Sans:400,400i,700,700i');</style><linearGradient id="L-0-44-0-4407d141d100ff1e27.grad" x1="-0.75%" y1="-44.12%" x2="-0.75%" y2="-44.12%"><stop stop-color="#7d141d" offset="0%"/><stop stop-color="#ff1e27" offset="100%"/></linearGradient><linearGradient id="L-8-8-8-807d141d100ff1e27.grad" x1="-8.14%" y1="-8.14%" x2="-8.14%" y2="-8.14%"><stop stop-color="#7d141d" offset="0%"/><stop stop-color="#ff1e27" offset="100%"/></linearGradient><linearGradient id="L-15-12-15-1207d141d100ff1e27.grad" x1="-15.76%" y1="-12.27%" x2="-15.76%" y2="-12.27%"><stop stop-color="#7d141d" offset="0%"/><stop stop-color="#ff1e27" offset="100%"/></linearGradient></defs><title xmlns="http://www.w3.org/1999/xhtml">Untitled drawing</title><desc xmlns="http://www.w3.org/1999/xhtml"></desc><svg height="222" id="jvjvydif5" overflow="visible" v:setup="{&quot;paper&quot;:&quot;CUSTOM&quot;,&quot;unit&quot;:&quot;px&quot;,&quot;scale&quot;:{&quot;from&quot;:&quot;1&quot;,&quot;to&quot;:&quot;1&quot;},&quot;width&quot;:&quot;227 px&quot;,&quot;height&quot;:&quot;37 px&quot;,&quot;orient&quot;:0}" viewBox="0 0 227 37" width="1362"><g id="jvjzcd1hi1" class="Group.cls" transform="translate(0 0)" v:abox="{&quot;x&quot;:0,&quot;y&quot;:0,&quot;width&quot;:223.8708,&quot;height&quot;:36}"><g class="Prim.cls"><g id="jvjzcd0phx" transform="translate(1.2710329710451161e-14 -2.2243087323319326e-14)"><path d="M 0.3401697282506 0.0000360882732 C 0.148284294997 0.0366492379981 -0.0033884477103 0.2233196639769 0.000057574473 0.4186426803668 L 0.000057574473 15.488395337854 C 0.0000712220856 15.7075675683505 0.1994833136919 15.9069763406621 0.4186639721594 15.9069934001858 L 15.488405579388 15.9069934001858 C 15.7075725902429 15.9069763406621 15.9069778580429 15.7075675683505 15.9069983294618 15.488395337854 L 15.9069983294618 0.4186426803668 C 15.9069778580429 0.1994653320132 15.7075725902429 0.0000565597015 15.488405579388 0.0000360882732 L 9.2093437331234 0.0000360882732 C 8.988184170828 -0.0030909224176 8.7847665049215 0.1974659558377 8.7847665049215 0.4186426803668 C 8.7847665049215 0.6398142870388 8.988184170828 0.8403711652943 9.2093437331234 0.8372441546035 L 15.0697991817016 0.8372441546035 L 15.0697991817016 15.0697887457603 L 0.8372703698458 15.0697887457603 L 0.8372703698458 0.8372441546035 L 6.6977258184239 0.8372441546035 C 6.9188649093005 0.8403711652943 7.122282575207 0.6398142870388 7.122282575207 0.4186426803668 C 7.122282575207 0.1974659558377 6.9188649093005 -0.0030909224176 6.6977258184239 0.0000360882732 C 4.5811994648891 0.0000360882732 2.4506024227564 0.0000360882732 0.3401697282506 0.0000360882732 Z M 0.3924946749856 20.0930341583255 C 0.1821849647126 20.106229699893 -0.0003382062926 20.3009215139068 0.000057574473 20.5116407504192 L 0.000057574473 35.5813934079063 C 0.0000712220856 35.8005656384028 0.1994833136919 35.9999744107145 0.4186639721594 36 L 15.488405579388 36 C 15.7075725902429 35.9999744107145 15.9069778580429 35.8005656384028 15.9069983294618 35.5813934079063 L 15.9069983294618 20.5116407504192 C 15.9069778580429 20.2924685199226 15.7075725902429 20.093059747611 15.488405579388 20.0930341583255 L 0.4186639721594 20.0930341583255 C 0.4099431477035 20.0927612059466 0.4012086756351 20.0927612059466 0.3924946749856 20.0930341583255 Z M 20.5116482325934 20.0930341583255 C 20.2924675741259 20.093059747611 20.0930623063258 20.2924685199226 20.0930418349069 20.5116407504192 L 20.0930418349069 35.5813934079063 C 20.0930623063258 35.8005656384028 20.2924675741259 35.9999744107145 20.5116482325934 36 L 35.5813966636283 36 C 35.8005636744832 35.9999744107145 35.9999689422831 35.8005656384028 36.0000030613147 35.5813934079063 L 36.0000030613147 20.5116407504192 C 35.9999689422831 20.2924685199226 35.8005636744832 20.093059747611 35.5813966636283 20.0930341583255 Z M 0.8372703698458 20.9302473425129 L 15.0697991817016 20.9302473425129 L 15.0697991817016 35.1627868158126 L 0.8372703698458 35.1627868158126 Z M 20.9302546302797 20.9302473425129 L 35.1627902659419 20.9302473425129 L 35.1627902659419 35.1627868158126 L 20.9302546302797 35.1627868158126 Z" fill="url(#L-15-12-15-1207d141d100ff1e27.grad)" fill-rule="nonzero" stroke="none" stroke-width="0.9360547325970197"/></g><g id="jvjzcd0shy" transform="translate(45.1677049443518 3.130445036187449)"><path d="M 6.6463668681615 22.1233767311403 Q 7.6760792393552 22.1233767311403 8.4717691733714 22.0765653981586 Q 9.2674591073876 22.0297625949387 9.7979452213225 21.9049465899239 L 9.7979452213225 17.0683837582481 Q 9.4858925590648 16.9123658844201 8.7838218356291 16.8031508138118 Q 8.081720405065 16.6939442729655 7.0832269477097 16.6939442729655 Q 6.4279368283874 16.6939442729655 5.6946506030164 16.7875498794052 Q 4.9613643776455 16.8811640156068 4.352885569565 17.1775988288563 Q 3.7444272329034 17.4740336421058 3.3387860671936 17.9888900668099 Q 2.9331244300649 18.5037550212757 2.9331244300649 19.3462483412866 Q 2.9331244300649 20.9064270795672 3.9316520064517 21.5149061702347 Q 4.9301795828386 22.1233767311403 6.6463668681615 22.1233767311403 Z M 6.396717914549 7.5824857275675 Q 8.1441241137102 7.5824857275675 9.3454893324678 8.0349388411331 Q 10.5468238440969 8.4873829984489 11.2801100694679 9.3142837005709 Q 12.0133962948388 10.1411758729311 12.325414838065 11.2801123227092 Q 12.6374675003227 12.4190489857314 12.6374675003227 13.7919995582309 L 12.6374675003227 23.9331793761768 Q 12.2630111294198 23.9955916435651 11.592128612694 24.1048067141733 Q 10.9212460959683 24.2140132550197 10.0787789697419 24.3076273912213 Q 9.2362743125807 24.4012415274228 8.2533391335973 24.4792461994559 Q 7.2704380736454 24.5572594012509 6.3031294110969 24.5572594012509 Q 4.9301795828386 24.5572594012509 3.7756256753229 24.276425522408 Q 2.6210922392261 23.9955916435651 1.7786046415807 23.3871210826595 Q 0.9361033963227 22.7786505217539 0.4680448743551 21.7801305849091 Q 0 20.7816196043142 0 19.3774502100998 Q 0 18.0357013997916 0.5460546280163 17.0683837582481 Q 1.0921160798389 16.1010745398444 2.0282194761617 15.5082048600345 Q 2.9643433439033 14.9153352002161 4.2124857548711 14.6345013013815 Q 5.4606281658389 14.3536674225387 6.8335779940972 14.3536674225387 Q 7.2704380736454 14.3536674225387 7.7384829480004 14.4004702257585 Q 8.2065278223555 14.4472815587402 8.6277955045002 14.5252947605352 Q 9.0490290676135 14.6032994325683 9.3610817298712 14.6657031701948 Q 9.6731036850005 14.7281154375831 9.7979452213225 14.7593173197241 L 9.7979452213225 13.9480259618208 Q 9.7979452213225 13.230340330307 9.6419188901937 12.5282555265777 Q 9.4858925590648 11.8261708294705 9.0802479814518 11.2801123227092 Q 8.674606815742 10.7340454994301 7.972505385178 10.4064088173673 Q 7.2704380736454 10.0787721353046 6.147103079968 10.0787721353046 Q 4.7117495430645 10.0787721353046 3.6352122130164 10.2815928123525 Q 2.5586885305809 10.4844220191623 2.0282194761617 10.7028436306168 L 1.6849820190971 8.3001632558075 Q 2.2466495159357 8.0505397755398 3.5572161069677 7.8165082734287 Q 4.8677417551619 7.5824857275675 6.396717914549 7.5824857275675 Z M 28.7073266308069 16.1322764086577 Q 28.7073266308069 13.2927440679334 27.3031578887103 11.7637670918441 Q 25.8989891466136 10.2347900091326 23.5587306558068 10.2347900091326 Q 22.2481845361938 10.2347900091326 21.5148983108228 10.3284041453342 Q 20.7816120854519 10.422009751774 20.3447520059036 10.5468257567888 L 20.3447520059036 20.7816196043142 Q 20.875200588904 21.2184713569851 21.8737281652908 21.624112711081 Q 22.8722557416776 22.0297625949387 24.0579944440002 22.0297625949387 Q 25.306136854968 22.0297625949387 26.1954152924363 21.5773099078611 Q 27.0847278489361 21.1248572207836 27.6463953457748 20.3291669172367 Q 28.2080628426135 19.5334680839279 28.4576776771944 18.4569436882941 Q 28.7073266308069 17.3804195059042 28.7073266308069 16.1322764086577 Z M 31.7340600357428 16.1322764086577 Q 31.7340600357428 17.9732891324032 31.2504227639843 19.5334680839279 Q 30.7667513731943 21.0936553519704 29.8306616244843 22.2169827640681 Q 28.8945377567426 23.3403182794396 27.5371803258878 23.9643897747519 Q 26.1798228950329 24.5884612700641 24.4324166958717 24.5884612700641 Q 23.028247953775 24.5884612700641 21.9517242713395 24.2140132550197 Q 20.875200588904 23.8395737697371 20.3447520059036 23.4963361532677 L 20.3447520059036 29.9866916461816 L 17.4428260182582 29.9866916461816 L 17.4428260182582 8.4873829984489 Q 18.4725383894519 8.2377595181811 20.0171069462425 7.9413247049316 Q 21.5617096220646 7.644889465194 23.5899154506137 7.644889465194 Q 25.4621290670654 7.644889465194 26.9599204316457 8.2377595181811 Q 28.4576776771944 8.8306291446801 29.5186089622265 9.9227542614765 Q 30.5795402472586 11.0148793782729 31.1568001415007 12.5906592642042 Q 31.7340600357428 14.1664476265863 31.7340600357428 16.1322764086577 Z M 40.6895227772746 24.5260575324377 Q 38.0059910044202 24.4636452650493 36.8826560107429 23.3715201482529 Q 35.7593210170656 22.2793950314564 35.7593210170656 19.9703198365988 L 35.7593210170656 0.4992554902974 L 38.6612828296941 0 L 38.6612828296941 19.5022662151146 Q 38.6612828296941 20.2199518466284 38.7860902469846 20.6880054681126 Q 38.9108976642751 21.1560590895968 39.1917314126944 21.4368929684397 Q 39.4725651611137 21.7177268472826 39.9406100354687 21.858143786704 Q 40.4086890288553 21.9985607261255 41.0951639429845 22.0921663325652 Z M 47.2422533753399 24.2140132550197 L 44.3403273876945 24.2140132550197 L 44.3403273876945 7.9881275081515 L 47.2422533753399 7.9881275081515 L 47.2422533753399 24.2140132550197 Z M 45.7757150436295 5.0549893477434 Q 44.9956175070167 5.0549893477434 44.4495424075815 4.5401286581584 Q 43.9034673081463 4.0252679685735 43.9034673081463 3.1515644632316 Q 43.9034673081463 2.2778652227706 44.4495424075815 1.7630045331857 Q 44.9956175070167 1.2481438436007 45.7757150436295 1.2481438436007 Q 46.5557784612108 1.2481438436007 47.101853560646 1.7630045331857 Q 47.6479286600812 2.2778652227706 47.6479286600812 3.1515644632316 Q 47.6479286600812 4.0252679685735 47.101853560646 4.5401286581584 Q 46.5557784612108 5.0549893477434 45.7757150436295 5.0549893477434 Z M 59.2868523774771 24.5884612700641 Q 57.3210502575733 24.5884612700641 55.8388512903964 23.9643897747519 Q 54.3566864422511 23.3403182794396 53.3425664684608 22.2169827640681 Q 52.3284464946705 21.0936553519704 51.8292159725328 19.5490775480964 Q 51.3299521843394 18.0044910012165 51.3299521843394 16.1322764086577 Q 51.3299521843394 14.2600617627879 51.8759931647431 12.6998743348124 Q 52.4220691171541 11.1396953832878 53.420596693541 10.0007674632715 Q 54.4190901508964 8.8618310134933 55.8700702042348 8.2221585837744 Q 57.3210502575733 7.5824857275675 59.0996412515414 7.5824857275675 Q 60.1917577578683 7.5824857275675 61.2839079567387 7.7697054702088 Q 62.3760240365777 7.9569256393382 63.3745518262085 8.3625755231959 L 62.7192614936423 10.8276596356316 Q 62.06397137432 10.5156238879755 61.2058777316585 10.3284041453342 Q 60.3477840889971 10.1411758729311 59.3804749999608 10.1411758729311 Q 56.9465938866704 10.1411758729311 55.6516401644607 11.6701614854043 Q 54.3566864422511 13.1991384614937 54.3566864422511 16.1322764086577 Q 54.3566864422511 17.4428317732925 54.6531125880739 18.534956890089 Q 54.9495728529281 19.6270822201295 55.5892364558155 20.4071715892698 Q 56.2289000587028 21.1872609584101 57.2274276350897 21.6085117766744 Q 58.2259552114766 22.0297625949387 59.661309174868 22.0297625949387 Q 60.8158289633521 22.0297625949387 61.7519528310938 21.8113324537223 Q 62.6880425798038 21.5929108422678 63.2185254950796 21.3432788322382 L 63.6241666607894 23.7771615023488 Q 63.3745518262085 23.9331793761768 62.906472619578 24.0735963155982 Q 62.4384277452229 24.2140132550197 61.8455754535774 24.3232283256279 Q 61.2526890429003 24.4324433962361 60.5818065261746 24.5104480682692 Q 59.9109240094489 24.5884612700641 59.2868523774771 24.5884612700641 Z M 72.2363567600054 22.1233767311403 Q 73.2660691311992 22.1233767311403 74.0617936107348 22.0765653981586 Q 74.857483544751 22.0297625949387 75.3879321277513 21.9049465899239 L 75.3879321277513 17.0683837582481 Q 75.0758794654936 16.9123658844201 74.3738121539609 16.8031508138118 Q 73.6717444159405 16.6939442729655 72.6732168395537 16.6939442729655 Q 72.0179267202314 16.6939442729655 71.2846404948604 16.7875498794052 Q 70.551388388521 16.8811640156068 69.9429093671965 17.1775988288563 Q 69.3344305591161 17.4740336421058 68.9287893934063 17.9888900668099 Q 68.5231482276965 18.5037550212757 68.5231482276965 19.3462483412866 Q 68.5231482276965 20.9064270795672 69.5216416850518 21.5149061702347 Q 70.5201694746826 22.1233767311403 72.2363567600054 22.1233767311403 Z M 71.9867419254245 7.5824857275675 Q 73.7341481245857 7.5824857275675 74.9354796507996 8.0349388411331 Q 76.1368107505256 8.4873829984489 76.8700969758966 9.3142837005709 Q 77.6033832012675 10.1411758729311 77.9154358635253 11.2801123227092 Q 78.2274544067515 12.4190489857314 78.2274544067515 13.7919995582309 L 78.2274544067515 23.9331793761768 Q 77.8529980358485 23.9955916435651 77.1821496381543 24.1048067141733 Q 76.5112671214286 24.2140132550197 75.6687658761706 24.3076273912213 Q 74.8262646309126 24.4012415274228 73.8433635709607 24.4792461994559 Q 72.8604279654894 24.5572594012509 71.8931193029409 24.5572594012509 Q 70.5201694746826 24.5572594012509 69.3656153539229 24.276425522408 Q 68.2110954588168 23.9955916435651 67.3685941602478 23.3871210826595 Q 66.5260928550149 22.7786505217539 66.0580479340128 21.7801305849091 Q 65.5900030063468 20.7816196043142 65.5900030063468 19.3774502100998 Q 65.5900030063468 18.0357013997916 66.1360440400614 17.0683837582481 Q 66.6821191961396 16.1010745398444 67.6182431671713 15.5082048600345 Q 68.5543330225033 14.9153352002161 69.8024754334711 14.6345013013815 Q 71.0506180576829 14.3536674225387 72.4235678859412 14.3536674225387 Q 72.8604279654894 14.3536674225387 73.328506958876 14.4004702257585 Q 73.7965522597189 14.4472815587402 74.2177858228321 14.5252947605352 Q 74.6390535049769 14.6032994325683 74.9510720482031 14.6657031701948 Q 75.2631247104608 14.7281154375831 75.3879321277513 14.7593173197241 L 75.3879321277513 13.9480259618208 Q 75.3879321277513 13.230340330307 75.2319057966224 12.5282555265777 Q 75.0758794654936 11.8261708294705 74.6702382997837 11.2801123227092 Q 74.2645971340739 10.7340454994301 73.5625293960535 10.4064088173673 Q 72.8604279654894 10.0787721353046 71.737092971812 10.0787721353046 Q 70.3017394349085 10.0787721353046 69.225215539229 10.2815928123525 Q 68.1486917501715 10.4844220191623 67.6182431671713 10.7028436306168 L 67.2750056567957 8.3001632558075 Q 67.8366390879138 8.0505397755398 69.1472194331803 7.8165082734287 Q 70.4577657660373 7.5824857275675 71.9867419254245 7.5824857275675 Z M 85.7475286393725 7.9881275081515 L 91.8946521907594 7.9881275081515 L 91.8946521907594 10.422009751774 L 85.7475286393725 10.422009751774 L 85.7475286393725 17.9108853947767 Q 85.7475286393725 19.127826729832 85.9347397653082 19.923517033379 Q 86.1219850102754 20.7192073369259 86.4964072621469 21.1716600240035 Q 86.8708636330498 21.624112711081 87.4325311298885 21.8113324537223 Q 87.9941986267271 21.9985607261255 88.7430772495015 21.9985607261255 Q 90.0536233691146 21.9985607261255 90.8493133031307 21.702125912876 Q 91.6450032371469 21.4056910996265 91.9570558994047 21.2808750946117 L 92.5187233962433 23.683555895909 Q 92.0818633166951 23.9019775073635 90.9897472368562 24.2296227191882 Q 89.8975970379857 24.5572594012509 88.4934624149205 24.5572594012509 Q 86.8396447192114 24.5572594012509 85.7631210367759 24.1360085829866 Q 84.6865973543404 23.7147577647222 84.0313413540496 22.8722561281936 Q 83.3760512347273 22.0297625949387 83.1108098837114 20.7972205387209 Q 82.845602651727 19.564678482503 82.845602651727 17.94208726359 L 82.845602651727 3.4636002108877 L 85.7475286393725 2.9643447205903 L 85.7475286393725 7.9881275081515 Z M 98.4786034086146 24.2140132550197 L 95.5766774209692 24.2140132550197 L 95.5766774209692 7.9881275081515 L 98.4786034086146 7.9881275081515 L 98.4786034086146 24.2140132550197 Z M 97.0120309578727 5.0549893477434 Q 96.23193342126 5.0549893477434 95.6858924408562 4.5401286581584 Q 95.1398156354694 4.0252679685735 95.1398156354694 3.1515644632316 Q 95.1398156354694 2.2778652227706 95.6858924408562 1.7630045331857 Q 96.23193342126 1.2481438436007 97.0120309578727 1.2481438436007 Q 97.7921284944855 1.2481438436007 98.3382035939207 1.7630045331857 Q 98.8842445743244 2.2778652227706 98.8842445743244 3.1515644632316 Q 98.8842445743244 4.0252679685735 98.3382035939207 4.5401286581584 Q 97.7921284944855 5.0549893477434 97.0120309578727 5.0549893477434 Z M 106.3731331591628 24.2140132550197 L 103.4711730524859 24.2140132550197 L 103.4711730524859 7.9881275081515 L 106.3731331591628 7.9881275081515 L 106.3731331591628 24.2140132550197 Z M 104.9065607084209 5.0549893477434 Q 104.1264631718081 5.0549893477434 103.5803880723729 4.5401286581584 Q 103.0343470919692 4.0252679685735 103.0343470919692 3.1515644632316 Q 103.0343470919692 2.2778652227706 103.5803880723729 1.7630045331857 Q 104.1264631718081 1.2481438436007 104.9065607084209 1.2481438436007 Q 105.6866241260022 1.2481438436007 106.2326992254374 1.7630045331857 Q 106.7787743248726 2.2778652227706 106.7787743248726 3.1515644632316 Q 106.7787743248726 4.0252679685735 106.2326992254374 4.5401286581584 Q 105.6866241260022 5.0549893477434 104.9065607084209 5.0549893477434 Z M 131.4920452405825 23.7459596335355 Q 130.4935176641957 23.9955916435651 128.8553264849215 24.276425522408 Q 127.2171353056473 24.5572594012509 125.0640879407762 24.5572594012509 Q 123.1918709124214 24.5572594012509 121.9125095876152 24.0111925779717 Q 120.6331823818405 23.4651342844544 119.8530848452278 22.4666147740977 Q 119.072987308615 21.468094837253 118.7297498515504 20.1107367760203 Q 118.3865123944858 18.7533787147876 118.3865123944858 17.0995856270614 L 118.3865123944858 7.9881275081515 L 121.2884383821313 7.9881275081515 L 121.2884383821313 16.475514025127 Q 121.2884383821313 19.4398624774882 122.2245622498729 20.7192073369259 Q 123.160651998583 21.9985607261255 125.3761406030339 21.9985607261255 Q 125.844185477389 21.9985607261255 126.3434151465509 21.9673503275504 Q 126.8427130537759 21.936156988499 127.2795390142925 21.8893456555173 Q 127.7163990938407 21.8425428522974 128.0752289483087 21.7957400490776 Q 128.4340929218082 21.7489287160958 128.5900851339056 21.6865249784693 L 128.5900851339056 7.9881275081515 L 131.4920452405825 7.9881275081515 L 131.4920452405825 23.7459596335355 Z M 139.1993297461635 7.9881275081515 L 145.3464191785189 7.9881275081515 L 145.3464191785189 10.422009751774 L 139.1993297461635 10.422009751774 L 139.1993297461635 17.9108853947767 Q 139.1993297461635 19.127826729832 139.3865408720992 19.923517033379 Q 139.5737519980349 20.7192073369259 139.9482083689378 21.1716600240035 Q 140.3226647398408 21.624112711081 140.8843322366795 21.8113324537223 Q 141.4459656144866 21.9985607261255 142.1948783562925 21.9985607261255 Q 143.5054244759056 21.9985607261255 144.3011144099218 21.702125912876 Q 145.096804343938 21.4056910996265 145.4088228871642 21.2808750946117 L 145.9704903840028 23.683555895909 Q 145.5336644234861 23.9019775073635 144.4415483436472 24.2296227191882 Q 143.3493981447767 24.5572594012509 141.94522940268 24.5572594012509 Q 140.2914458260024 24.5572594012509 139.2149221435669 24.1360085829866 Q 138.1383984611314 23.7147577647222 137.4831424608406 22.8722561281936 Q 136.8278523415183 22.0297625949387 136.5626109905024 20.7972205387209 Q 136.2974037585181 19.564678482503 136.2974037585181 17.94208726359 L 136.2974037585181 3.4636002108877 L 139.1993297461635 2.9643447205903 L 139.1993297461635 7.9881275081515 Z M 151.9304028094541 24.2140132550197 L 149.0284427027771 24.2140132550197 L 149.0284427027771 7.9881275081515 L 151.9304028094541 7.9881275081515 L 151.9304028094541 24.2140132550197 Z M 150.4638303587121 5.0549893477434 Q 149.6837328220994 5.0549893477434 149.1376577226641 4.5401286581584 Q 148.5916167422604 4.0252679685735 148.5916167422604 3.1515644632316 Q 148.5916167422604 2.2778652227706 149.1376577226641 1.7630045331857 Q 149.6837328220994 1.2481438436007 150.4638303587121 1.2481438436007 Q 151.2439278953249 1.2481438436007 151.7899688757286 1.7630045331857 Q 152.3360439751639 2.2778652227706 152.3360439751639 3.1515644632316 Q 152.3360439751639 4.0252679685735 151.7899688757286 4.5401286581584 Q 151.2439278953249 5.0549893477434 150.4638303587121 5.0549893477434 Z M 161.790734679906 24.5260575324377 Q 159.1072387320347 24.4636452650493 157.9839037383574 23.3715201482529 Q 156.86056874468 22.2793950314564 156.86056874468 19.9703198365988 L 156.86056874468 0.4992554902974 L 159.7624947323255 0 L 159.7624947323255 19.5022662151146 Q 159.7624947323255 20.2199518466284 159.887302149616 20.6880054681126 Q 160.0121436859379 21.1560590895968 160.2929774343573 21.4368929684397 Q 160.5738111827766 21.7177268472826 161.0418560571317 21.858143786704 Q 161.5099009314867 21.9985607261255 162.1963758456158 22.0921663325652 Z M 164.5366684554541 16.1322764086577 Q 164.5366684554541 13.979227830634 165.1607396609381 12.3722376527497 Q 165.7848108664219 10.7652558980051 166.8145232376157 9.7043241202601 Q 167.8442356088094 8.6434094020388 169.1860006422608 8.1129435131662 Q 170.5277656757122 7.5824857275675 171.9319002987774 7.5824857275675 Q 175.2083167763573 7.5824857275675 176.955688856487 9.626319448227 Q 178.7030950556482 11.6701614854043 178.7030950556482 15.8514425298148 L 178.7030950556482 16.3350970857056 Q 178.7030950556482 16.3350970857056 178.6718761418098 16.8811640156068 L 167.56340186039 16.8811640156068 Q 167.7506129863257 19.4086606086749 169.0299743111319 20.7192073369259 Q 170.3093356359381 22.0297625949387 173.0240504976478 22.0297625949387 Q 174.553026657035 22.0297625949387 175.5983314256321 21.7645296505024 Q 176.6436703132608 21.499305235828 177.1741188962611 21.2496732257984 L 177.5797600619709 23.683555895909 Q 177.0493114789706 23.9643897747519 175.7231388429226 24.276425522408 Q 174.3970003259061 24.5884612700641 172.7119978353901 24.5884612700641 Q 170.5901693843575 24.5884612700641 169.0455667085354 23.9487888403453 Q 167.5009981517448 23.3091078808646 166.5025046943895 22.1857808952549 Q 165.5039771180026 21.0624449533953 165.0203057272126 19.5178671495213 Q 164.5366684554541 17.9732891324032 164.5366684554541 16.1322764086577 Z M 175.6763616507123 14.54088716518 Q 175.7075464455192 12.5750668595595 174.6934264717289 11.3113141915224 Q 173.6793064979386 10.0475702664913 171.9007155039705 10.0475702664913 Q 170.9021879275837 10.0475702664913 170.1377169074058 10.4376106861806 Q 169.3732117681965 10.8276596356316 168.8427631851962 11.4517313441879 Q 168.3122804831644 12.0758028395002 168.0158543373416 12.8871026072156 Q 167.7194281915189 13.6983939517912 167.6258055690353 14.54088716518 L 175.6763616507123 14.54088716518 Z" fill="url(#L-0-44-0-4407d141d100ff1e27.grad)" fill-rule="nonzero" stroke="none" stroke-width="3.4887526241029754"/></g></g></g></svg></svg>