<?xml version="1.0" standalone="no"?>
<!DOCTYPE svg PUBLIC "-//W3C//DTD SVG 20010904//EN"
 "http://www.w3.org/TR/2001/REC-SVG-20010904/DTD/svg10.dtd">
<svg version="1.0" xmlns="http://www.w3.org/2000/svg"
 width="366.000000pt" height="366.000000pt" viewBox="0 0 366.000000 366.000000"
 preserveAspectRatio="xMidYMid meet">
<metadata>
Created by potrace 1.11, written by Peter Selinger 2001-2013
</metadata>
<g transform="translate(0.000000,366.000000) scale(0.100000,-0.100000)"
fill="#000000" stroke="none">
<path d="M0 1830 l0 -1830 1830 0 1830 0 0 1830 0 1830 -1830 0 -1830 0 0
-1830z m2295 1701 c268 -59 496 -183 684 -372 82 -82 172 -198 222 -285 l23
-41 -36 -49 c-51 -68 -181 -217 -193 -220 -5 -2 -23 26 -39 62 -120 268 -357
491 -616 579 -235 80 -525 73 -789 -20 -187 -65 -302 -138 -454 -284 -174
-168 -292 -390 -344 -649 -13 -65 -18 -136 -18 -277 0 -227 19 -336 96 -570
60 -178 136 -330 228 -453 l68 -89 -103 -134 c-88 -115 -101 -136 -89 -149 11
-13 6 -23 -35 -72 l-49 -58 -53 46 c-123 105 -259 286 -350 468 -83 165 -157
411 -174 578 l-7 68 62 74 61 74 0 151 c0 285 50 508 169 756 239 497 699 813
1291 889 84 10 357 -4 445 -23z m115 -709 l55 -7 52 -330 52 -330 -32 -28
c-79 -68 -346 -262 -351 -255 -2 1 -23 118 -46 258 -23 140 -45 261 -48 269
-4 10 -20 11 -71 6 -189 -20 -313 -124 -385 -323 -49 -136 -51 -303 -6 -456
l22 -74 -147 -193 c-82 -107 -150 -196 -152 -199 -18 -20 -138 218 -171 338
-24 89 -26 113 -26 292 0 170 3 205 22 274 83 298 261 514 528 641 193 92 494
141 704 117z"/>
</g>
</svg>
