<!DOCTYPE svg PUBLIC "-//W3C//DTD SVG 20010904//EN" "http://www.w3.org/TR/2001/REC-SVG-20010904/DTD/svg10.dtd">
<svg version="1.0" xmlns="http://www.w3.org/2000/svg" width="1451px" height="1600px" viewBox="0 0 14510 16000" preserveAspectRatio="xMidYMid meet">
<g id="layer101" fill="#662d90" stroke="none">
 <path d="M9285 15974 c-18 -19 -25 -38 -25 -65 0 -22 5 -39 10 -39 6 0 10 -4 10 -9 0 -9 44 -87 185 -331 44 -74 94 -162 112 -195 19 -33 45 -78 59 -100 13 -22 36 -62 50 -90 15 -27 30 -52 34 -55 4 -3 9 -10 11 -16 2 -6 51 -92 109 -192 58 -100 110 -190 115 -199 61 -106 203 -352 220 -381 6 -9 37 -64 70 -122 33 -58 68 -118 77 -135 10 -16 30 -52 45 -79 16 -27 33 -56 38 -65 6 -9 28 -47 50 -86 21 -38 41 -72 44 -75 3 -3 17 -25 31 -50 13 -25 39 -70 57 -100 17 -30 41 -71 52 -90 l19 -36 -52 -94 c-29 -52 -78 -138 -108 -190 -31 -52 -83 -143 -117 -202 -33 -59 -70 -122 -80 -140 -11 -18 -38 -64 -59 -103 -44 -78 -167 -292 -181 -315 -24 -38 -216 -375 -220 -384 -2 -5 -8 -15 -13 -21 -9 -10 -179 -305 -277 -480 -28 -49 -64 -112 -81 -140 -16 -27 -44 -77 -62 -109 -18 -32 -38 -66 -43 -75 -6 -9 -37 -63 -70 -121 -33 -58 -64 -113 -70 -122 -5 -10 -38 -67 -73 -128 l-63 -110 -1294 0 c-799 0 -1303 -4 -1319 -10 -14 -5 -33 -24 -42 -41 -13 -27 -14 -39 -5 -70 7 -21 20 -43 31 -49 13 -7 457 -9 1362 -8 l1343 3 30 23 c16 13 41 44 56 70 25 45 120 210 162 282 11 19 37 64 57 100 20 36 46 81 58 100 11 19 44 76 71 125 58 103 156 273 170 295 6 8 29 49 52 90 23 41 63 111 89 155 26 44 59 100 73 125 80 140 141 246 192 335 32 55 84 145 115 200 31 55 66 116 78 135 11 19 39 67 60 105 51 90 169 295 181 315 6 8 34 58 64 110 29 52 78 136 107 185 43 73 54 101 58 146 5 61 8 52 -98 234 -29 50 -79 137 -112 195 -33 58 -86 150 -119 205 -32 55 -72 125 -89 155 -16 30 -41 73 -54 95 -14 22 -43 72 -64 110 -52 93 -169 296 -182 315 -5 8 -22 38 -38 65 -16 28 -38 66 -49 85 -11 19 -43 73 -69 120 -27 47 -53 93 -59 102 -5 9 -34 59 -63 110 -74 129 -124 215 -155 268 -14 25 -38 65 -52 90 -14 25 -33 59 -43 75 -10 17 -30 53 -46 80 -96 166 -131 221 -144 233 -29 22 -90 15 -117 -14z"/>
 <path d="M1900 13340 c-11 -11 -22 -31 -26 -45 -7 -27 11 -80 30 -93 6 -4 582 -9 1280 -12 l1270 -5 54 -95 c74 -128 145 -251 157 -272 5 -9 48 -81 94 -160 45 -79 92 -159 104 -178 11 -19 45 -78 75 -130 31 -52 90 -153 132 -225 42 -71 92 -157 111 -190 19 -33 39 -68 44 -77 11 -18 42 -72 127 -218 30 -52 79 -135 108 -185 29 -49 78 -133 108 -185 31 -52 70 -120 88 -150 18 -30 56 -95 84 -145 28 -49 61 -106 72 -125 12 -19 45 -75 74 -125 28 -49 77 -133 108 -185 31 -52 56 -101 56 -109 0 -12 -28 -65 -77 -146 -7 -11 -17 -29 -22 -40 -6 -11 -33 -58 -60 -105 -27 -47 -71 -123 -97 -170 -26 -47 -51 -87 -54 -90 -3 -3 -29 -45 -56 -95 -28 -49 -73 -129 -101 -176 -27 -48 -53 -93 -57 -100 -4 -8 -12 -23 -19 -34 -7 -11 -33 -56 -58 -100 -25 -44 -69 -120 -97 -168 -29 -49 -52 -92 -52 -97 0 -5 -4 -10 -8 -12 -5 -1 -31 -43 -58 -91 -27 -49 -54 -96 -59 -105 -6 -9 -28 -48 -50 -87 -22 -38 -44 -77 -50 -87 -5 -9 -30 -52 -54 -95 -40 -71 -72 -125 -183 -312 -47 -79 -51 -129 -13 -166 28 -29 79 -33 113 -9 12 8 34 36 48 62 14 26 41 74 60 107 20 33 47 80 61 105 13 25 35 63 49 85 13 22 36 63 50 90 15 28 30 52 35 53 5 2 9 7 9 11 0 5 23 48 52 97 28 49 72 125 97 169 25 44 50 88 56 97 5 10 58 102 117 205 59 104 111 193 115 198 5 6 26 42 47 80 22 39 58 102 81 140 23 39 55 94 71 123 16 29 34 61 39 70 6 9 31 53 56 97 44 77 96 165 202 345 39 67 51 97 54 140 5 52 2 61 -41 135 -25 44 -51 87 -56 95 -5 8 -21 35 -35 60 -14 25 -38 68 -55 95 -17 28 -43 72 -58 99 -15 27 -31 56 -37 65 -13 21 -65 108 -87 146 -10 17 -30 52 -45 79 -16 27 -33 56 -38 65 -6 9 -32 54 -59 101 -26 47 -57 99 -67 117 -22 39 -60 102 -76 128 -7 11 -24 40 -38 65 -14 25 -38 68 -55 95 -17 28 -41 70 -55 95 -14 25 -30 52 -35 60 -6 8 -53 89 -105 180 -52 91 -99 172 -105 180 -5 8 -21 35 -35 60 -14 25 -38 68 -55 95 -17 28 -41 70 -55 95 -14 25 -31 54 -38 65 -44 71 -77 126 -77 130 0 3 -11 22 -24 43 -13 20 -73 123 -134 227 -60 105 -119 206 -131 225 -11 19 -29 51 -40 70 -10 19 -33 43 -49 53 -28 16 -110 17 -1331 17 -1282 0 -1301 0 -1321 -20z"/>
 <path d="M11120 13353 c-18 -7 -80 -64 -80 -74 0 -4 -13 -29 -29 -56 -16 -26 -58 -100 -95 -163 -37 -63 -71 -122 -76 -130 -6 -8 -21 -35 -35 -60 -14 -25 -36 -63 -50 -85 -13 -22 -38 -65 -55 -95 -17 -30 -42 -73 -55 -95 -14 -22 -36 -60 -50 -85 -14 -25 -30 -52 -35 -60 -29 -45 -100 -173 -100 -180 0 -5 -4 -10 -9 -12 -5 -1 -20 -25 -35 -53 -14 -27 -37 -68 -51 -90 -13 -22 -35 -58 -47 -80 -12 -22 -28 -49 -35 -60 -7 -11 -15 -27 -19 -35 -7 -14 -54 -93 -81 -136 -7 -10 -26 -44 -43 -74 -17 -30 -35 -62 -40 -70 -29 -44 -200 -343 -200 -350 0 -5 -4 -10 -9 -12 -5 -1 -20 -25 -35 -53 -14 -27 -39 -72 -56 -100 -17 -27 -41 -70 -55 -95 -14 -25 -30 -52 -35 -60 -12 -19 -117 -198 -161 -275 -19 -33 -38 -67 -44 -76 -5 -9 -21 -36 -34 -60 -13 -24 -32 -56 -42 -71 -22 -30 -25 -111 -6 -145 6 -12 34 -61 61 -110 27 -48 57 -99 66 -113 16 -23 48 -79 140 -240 73 -128 89 -156 140 -245 29 -49 74 -126 99 -170 25 -44 50 -87 56 -96 5 -9 25 -43 43 -75 18 -32 44 -77 57 -99 14 -22 39 -65 55 -95 16 -30 41 -73 54 -95 14 -22 48 -80 75 -130 63 -112 157 -275 171 -295 5 -8 21 -35 35 -60 14 -25 33 -58 43 -75 10 -16 30 -52 46 -80 90 -157 141 -237 157 -246 31 -16 77 -10 106 15 22 19 28 32 28 65 0 23 -5 45 -10 49 -6 4 -21 27 -35 52 -13 25 -38 70 -56 100 -18 30 -59 102 -92 160 -33 58 -83 146 -112 195 -29 50 -62 106 -73 125 -11 19 -34 60 -51 90 -16 30 -33 57 -36 60 -4 3 -9 10 -11 15 -3 8 -145 256 -224 393 -6 9 -28 49 -50 87 -21 39 -42 72 -45 75 -4 3 -9 10 -11 15 -5 12 -95 173 -109 195 -12 18 -127 218 -184 318 -22 40 -46 81 -51 90 -6 9 -28 49 -50 87 -21 39 -42 72 -46 75 -14 10 -13 36 2 60 9 14 44 75 79 135 35 61 75 130 90 155 15 25 53 90 85 145 32 55 80 136 106 180 26 44 55 97 65 118 10 20 21 37 26 37 4 0 8 4 8 9 0 4 22 46 49 92 60 105 181 312 209 359 12 19 42 73 68 120 26 47 50 87 54 90 6 5 74 122 133 230 17 30 34 57 39 58 4 2 8 7 8 11 0 8 44 85 150 266 30 50 69 117 87 150 19 33 45 78 59 100 13 22 36 63 50 90 15 28 29 52 33 55 3 3 17 25 30 50 14 25 43 77 66 115 23 39 54 91 69 118 l27 47 1343 0 1342 0 17 -32 c9 -18 29 -54 44 -80 15 -26 59 -101 97 -167 87 -152 95 -161 151 -161 35 0 48 5 64 26 26 34 27 93 2 125 -10 13 -20 29 -22 34 -11 27 -84 150 -91 153 -4 2 -8 7 -8 12 0 4 -28 56 -61 115 -41 71 -72 113 -93 126 -30 18 -73 19 -1441 18 -775 0 -1417 -3 -1425 -6z"/>
 <path d="M1075 13049 c-232 -41 -400 -138 -525 -304 -54 -71 -87 -134 -123 -234 -30 -83 -31 -92 -31 -246 0 -154 1 -163 31 -246 80 -223 218 -378 415 -468 258 -118 543 -96 776 59 56 37 157 129 194 177 29 37 88 152 114 221 53 142 55 352 4 502 -45 131 -132 266 -221 341 -54 45 -160 119 -172 119 -4 0 -32 12 -62 26 -64 29 -237 65 -305 63 -25 -1 -67 -5 -95 -10z m268 -123 c118 -31 207 -79 297 -163 146 -136 220 -302 220 -498 0 -136 -45 -285 -116 -383 -33 -45 -182 -192 -195 -192 -5 0 -26 -10 -47 -23 -79 -49 -221 -87 -325 -87 -45 0 -107 9 -165 25 -224 60 -388 206 -475 422 -30 75 -31 84 -31 228 -1 120 3 161 17 204 81 239 235 390 472 462 120 36 221 38 348 5z"/>
 <path d="M1265 12440 l-140 -140 -3 -245 c-2 -161 1 -251 8 -265 13 -25 52 -35 79 -20 20 10 21 17 21 243 l0 233 130 133 c72 73 130 140 130 148 0 32 -21 53 -53 53 -28 0 -50 -18 -172 -140z"/>
 <path d="M12880 12741 l0 -158 -46 -39 c-104 -88 -175 -212 -198 -345 -20 -112 -2 -221 52 -328 33 -66 113 -160 179 -212 42 -33 152 -88 227 -113 149 -50 380 -53 515 -6 48 17 63 18 125 9 86 -14 231 -6 306 17 312 93 475 370 375 638 -26 67 -41 91 -102 154 l-72 75 -3 133 -3 133 -144 -80 c-167 -91 -178 -93 -271 -30 -30 21 -71 44 -90 51 -19 7 -40 17 -47 22 -17 13 -67 27 -178 48 -108 21 -174 24 -245 10 -25 -4 -47 -5 -50 -2 -3 4 -25 17 -50 30 -97 50 -145 78 -158 90 -7 6 -18 12 -23 12 -5 0 -27 11 -49 25 -22 14 -42 25 -45 25 -3 0 -5 -71 -5 -159z m380 -129 c36 5 100 7 144 4 78 -6 234 -47 269 -71 16 -11 15 -13 -19 -19 -87 -17 -239 -106 -297 -176 -138 -163 -155 -381 -44 -550 42 -63 64 -87 127 -134 l55 -41 -60 -7 c-88 -11 -250 5 -310 31 -156 68 -230 119 -295 205 -120 158 -125 336 -14 504 33 49 144 152 165 152 5 0 9 44 9 101 l0 100 103 -54 102 -55 65 10z m870 -177 c0 -41 4 -75 9 -75 19 0 131 -112 155 -156 55 -98 55 -219 1 -316 -34 -61 -120 -141 -190 -177 -136 -70 -342 -78 -490 -19 -150 60 -265 213 -265 353 0 140 118 297 265 352 104 39 141 45 255 42 l115 -4 65 37 c36 20 68 37 73 37 4 1 7 -33 7 -74z"/>
 <path d="M1547 7853 c-16 -8 -43 -38 -60 -67 -18 -28 -38 -60 -44 -71 -7 -11 -28 -47 -45 -79 -18 -32 -39 -68 -45 -80 -37 -63 3 -146 70 -146 55 0 64 10 164 193 l48 87 1597 0 1598 0 22 -38 c13 -21 29 -47 35 -57 7 -11 26 -45 43 -75 17 -30 42 -73 55 -95 14 -22 37 -62 51 -90 15 -27 30 -51 35 -53 5 -2 9 -7 9 -12 0 -4 24 -50 54 -101 121 -213 181 -316 299 -519 11 -19 34 -60 51 -90 16 -30 33 -57 36 -60 4 -3 9 -10 11 -15 3 -8 145 -256 224 -393 6 -9 28 -48 50 -87 21 -38 42 -72 45 -75 4 -3 9 -9 11 -15 5 -11 95 -172 109 -195 6 -8 28 -46 49 -83 l39 -68 -94 -162 c-52 -89 -98 -169 -104 -177 -5 -8 -22 -37 -38 -65 -16 -27 -38 -66 -49 -85 -11 -19 -36 -62 -55 -95 -19 -33 -58 -100 -87 -148 -28 -49 -51 -92 -51 -97 0 -5 -4 -10 -8 -12 -4 -1 -26 -34 -47 -73 -22 -38 -44 -77 -50 -86 -5 -9 -22 -38 -38 -65 -15 -27 -54 -94 -86 -149 -64 -108 -154 -264 -160 -280 -2 -5 -8 -14 -13 -20 -16 -18 -158 -266 -158 -275 0 -4 -4 -10 -8 -12 -4 -1 -26 -34 -47 -73 -22 -38 -44 -78 -50 -87 -5 -9 -24 -40 -41 -70 -17 -29 -40 -69 -51 -88 -11 -19 -36 -62 -55 -95 -19 -33 -58 -100 -87 -148 -28 -49 -51 -91 -51 -93 0 -3 -5 -10 -10 -17 -16 -18 -149 -249 -156 -269 -5 -17 -81 -18 -1397 -18 -1079 -1 -1396 -3 -1408 -13 -44 -34 -48 -106 -8 -143 20 -18 65 -19 1438 -21 l1416 -3 38 23 c22 12 46 36 55 52 10 17 20 32 23 35 4 3 18 28 33 55 14 28 39 73 56 100 17 28 42 70 55 95 14 25 51 88 82 140 30 52 76 131 102 175 25 44 50 88 56 97 5 9 48 81 94 160 45 79 92 159 104 178 11 19 45 78 75 130 31 52 90 154 132 225 42 72 92 157 111 190 19 33 39 67 44 76 6 9 22 38 37 65 15 27 41 72 58 99 17 28 42 70 55 95 14 25 50 86 79 135 29 50 79 135 111 190 32 55 73 125 91 155 18 30 56 96 84 145 28 50 76 132 106 184 78 135 77 150 -23 321 -101 173 -132 227 -176 305 -29 50 -56 97 -62 106 -5 9 -22 38 -37 65 -15 27 -41 72 -58 99 -17 28 -44 75 -60 105 -16 30 -41 73 -54 95 -14 22 -43 72 -64 110 -57 102 -170 298 -182 315 -5 8 -21 35 -35 60 -14 25 -38 68 -55 95 -17 28 -41 70 -55 95 -14 25 -35 61 -47 80 -11 19 -41 71 -66 115 -49 87 -51 91 -123 215 -27 47 -66 115 -87 152 -25 46 -48 73 -73 87 -37 21 -40 21 -1695 20 -1445 -1 -1663 -3 -1687 -16z"/>
 <path d="M10727 7853 c-24 -13 -48 -44 -104 -138 -49 -83 -219 -381 -222 -389 -2 -6 -7 -13 -11 -16 -3 -3 -24 -36 -45 -75 -22 -38 -44 -77 -50 -86 -5 -9 -25 -43 -43 -75 -18 -32 -41 -74 -52 -92 -11 -18 -48 -81 -81 -140 -34 -59 -86 -149 -115 -201 -30 -51 -54 -97 -54 -101 0 -5 -4 -10 -8 -12 -4 -1 -26 -34 -47 -73 -22 -38 -44 -77 -50 -86 -5 -9 -22 -38 -38 -65 -15 -27 -35 -62 -45 -79 -9 -16 -44 -77 -77 -135 -33 -58 -64 -112 -70 -121 -5 -9 -22 -38 -37 -65 -15 -27 -41 -71 -58 -99 -98 -164 -122 -217 -117 -252 8 -46 22 -61 64 -69 36 -7 103 16 103 35 0 4 30 60 66 122 37 63 84 146 106 184 21 39 50 88 64 110 13 22 36 62 49 88 14 26 41 71 59 100 18 29 46 76 62 106 16 30 34 61 39 70 6 9 33 57 62 106 44 78 99 172 176 305 11 19 34 60 51 90 16 30 32 57 36 60 4 3 9 12 13 20 4 8 29 53 56 100 27 47 73 127 103 178 29 52 58 101 63 110 6 10 32 55 59 102 26 47 58 101 69 120 11 19 33 58 49 85 16 28 37 64 47 80 l18 30 1596 3 1596 2 19 -27 c10 -16 36 -59 58 -98 21 -38 43 -78 49 -88 5 -9 57 -98 114 -197 57 -100 113 -187 125 -195 32 -23 83 -19 111 10 38 37 33 84 -16 169 -104 177 -136 234 -142 247 -4 8 -46 81 -95 164 -61 104 -97 156 -121 172 l-34 23 -1661 -1 c-1446 -1 -1665 -3 -1689 -16z"/>
 <path d="M65 7196 c-53 -23 -67 -57 -63 -150 2 -65 9 -92 32 -136 47 -92 118 -154 217 -190 78 -29 129 -27 160 8 56 61 57 58 -26 71 -142 21 -248 98 -279 202 -20 66 -20 84 0 103 14 14 79 16 564 16 485 0 550 -2 564 -16 20 -19 20 -37 0 -103 -31 -104 -137 -181 -279 -202 -83 -13 -82 -10 -26 -71 19 -22 34 -28 66 -28 43 0 130 28 172 55 106 70 173 185 175 302 1 81 -17 118 -69 139 -47 20 -1163 20 -1208 0z"/>
 <path d="M12980 6460 l0 -490 755 0 755 0 0 490 0 490 -755 0 -755 0 0 -490z m1430 30 c0 -209 -3 -380 -7 -380 -5 0 -24 15 -44 33 -44 38 -81 70 -139 117 -24 19 -141 117 -261 218 -120 100 -221 182 -225 182 -3 0 -11 -6 -18 -12 -14 -14 -5 -7 -316 -264 -124 -103 -241 -200 -260 -217 -19 -16 -45 -36 -57 -45 l-23 -14 0 381 0 381 675 0 675 0 0 -380z m-635 37 c15 -12 37 -31 50 -42 13 -12 41 -35 62 -53 21 -17 115 -96 208 -174 94 -79 188 -157 210 -175 l40 -32 -609 -1 -609 0 26 24 c14 13 35 30 45 38 10 7 43 34 73 60 50 43 202 171 310 259 24 20 69 57 99 82 30 25 58 43 62 41 4 -2 19 -14 33 -27z"/>
 <path d="M533 6760 c-99 -46 -169 -127 -215 -245 -20 -51 -23 -78 -23 -185 0 -134 13 -187 71 -286 61 -104 193 -184 304 -184 84 0 191 50 253 119 118 130 158 334 103 514 -40 129 -111 217 -219 267 -51 25 -75 30 -137 30 -62 0 -86 -5 -137 -30z m234 -85 c46 -19 114 -92 145 -155 97 -197 22 -459 -156 -544 -49 -23 -132 -21 -181 5 -218 115 -257 459 -72 641 75 74 168 93 264 53z"/>
 <path d="M6469 5429 c-24 -14 -48 -43 -73 -88 -83 -148 -256 -447 -266 -458 -5 -7 -10 -14 -10 -16 0 -5 -123 -222 -140 -247 -5 -8 -25 -42 -42 -74 -18 -32 -38 -66 -43 -75 -6 -9 -37 -63 -70 -121 -33 -58 -64 -112 -70 -121 -5 -9 -22 -38 -37 -65 -16 -27 -44 -76 -63 -109 -19 -33 -58 -100 -86 -150 -27 -49 -75 -133 -105 -185 -84 -143 -105 -180 -138 -240 -16 -30 -33 -56 -38 -58 -4 -2 -8 -7 -8 -12 0 -7 -115 -213 -140 -250 -5 -8 -25 -42 -42 -74 -18 -32 -38 -66 -43 -75 -6 -9 -37 -63 -70 -121 -33 -58 -64 -113 -70 -122 -79 -131 -105 -189 -105 -235 0 -50 -4 -42 138 -287 29 -49 52 -92 52 -97 0 -4 4 -9 9 -11 5 -1 20 -25 35 -53 14 -27 34 -63 44 -80 9 -16 42 -73 72 -125 30 -52 60 -103 65 -112 6 -9 32 -56 59 -105 27 -48 57 -99 66 -113 16 -23 48 -79 140 -240 20 -36 46 -81 58 -100 11 -19 33 -57 48 -85 15 -27 46 -81 69 -120 23 -38 57 -97 76 -130 19 -33 39 -67 44 -76 6 -9 22 -38 37 -65 15 -27 41 -71 58 -99 17 -27 44 -75 60 -105 16 -30 41 -73 54 -95 14 -22 48 -80 76 -130 182 -320 170 -305 234 -305 36 0 48 5 65 26 12 15 21 40 21 55 0 26 -49 125 -116 234 -13 22 -36 63 -50 90 -15 28 -30 52 -34 55 -4 3 -9 10 -11 16 -2 6 -51 92 -109 192 -58 100 -110 190 -115 199 -54 94 -198 344 -220 381 -6 9 -57 99 -115 200 -58 100 -110 190 -115 200 -6 9 -28 49 -50 87 -21 39 -41 72 -44 75 -3 3 -17 25 -31 50 -13 25 -39 70 -56 100 -18 30 -57 97 -86 148 -29 52 -58 101 -63 110 -6 10 -28 49 -49 87 -21 39 -49 86 -61 105 -12 19 -34 55 -48 80 l-25 46 45 79 c51 89 56 99 138 240 101 173 173 298 204 355 17 30 44 78 60 105 16 28 49 84 72 125 23 41 61 107 84 145 23 39 54 93 69 120 15 28 37 66 48 85 12 19 38 64 58 100 31 55 91 159 170 295 9 17 43 75 75 130 101 173 173 298 204 355 17 30 44 78 60 105 16 28 49 84 72 125 23 41 63 111 89 155 76 127 99 168 110 193 l10 22 1262 0 1263 0 14 -21 c7 -12 21 -36 31 -53 9 -17 43 -76 75 -131 32 -55 74 -129 95 -165 20 -36 46 -81 58 -100 11 -19 33 -57 48 -85 15 -27 46 -81 69 -120 23 -38 61 -104 84 -145 23 -41 56 -97 72 -125 16 -27 43 -75 60 -105 31 -57 103 -183 204 -355 32 -55 68 -118 80 -140 13 -22 47 -80 76 -130 28 -49 69 -119 89 -155 20 -36 46 -81 58 -100 11 -19 33 -57 48 -85 15 -27 46 -81 69 -120 23 -38 61 -104 84 -145 23 -41 56 -97 72 -125 16 -27 43 -75 60 -105 16 -30 52 -93 79 -140 l49 -85 -29 -50 c-15 -27 -49 -86 -74 -130 -68 -117 -58 -180 29 -192 54 -7 82 17 140 120 25 45 61 109 80 142 45 78 47 138 7 210 -41 72 -79 138 -134 234 -26 46 -48 87 -48 92 0 4 -4 9 -8 11 -5 2 -22 28 -38 58 -33 60 -54 97 -138 240 -30 52 -79 137 -108 188 -29 52 -58 101 -63 110 -6 10 -33 57 -60 105 -28 49 -55 96 -60 105 -6 9 -37 64 -70 122 -33 58 -64 112 -70 121 -5 9 -25 43 -43 75 -17 32 -37 66 -42 74 -25 37 -140 243 -140 250 0 5 -4 10 -9 12 -5 2 -20 26 -35 53 -14 28 -34 64 -44 80 -9 17 -41 73 -71 125 -29 52 -64 111 -76 130 -12 19 -69 117 -126 218 -57 100 -109 190 -114 200 -6 9 -29 51 -53 93 -31 56 -52 81 -81 97 l-39 22 -1318 0 -1319 0 -36 -21z"/>
 <path d="M9450 2430 c0 -38 -4 -50 -15 -50 -9 0 -29 -7 -44 -15 -27 -13 -30 -13 -57 15 -16 16 -34 30 -39 30 -6 0 -42 -31 -80 -70 l-69 -70 32 -32 31 -33 -17 -48 -17 -47 -47 0 -48 0 0 -105 0 -105 48 0 c47 0 47 0 63 -44 16 -44 16 -44 -13 -75 -15 -16 -28 -33 -28 -36 0 -4 32 -39 71 -77 70 -69 70 -70 92 -52 12 10 27 24 33 31 8 9 21 8 57 -5 l47 -17 0 -47 0 -48 105 0 105 0 0 48 0 47 47 17 48 17 32 -31 32 -31 70 69 c39 38 71 73 71 77 0 4 -13 22 -28 38 -29 31 -29 31 -13 75 15 43 17 44 58 44 33 0 41 -3 37 -14 -3 -8 -11 -17 -19 -19 -7 -3 -22 -19 -33 -35 l-21 -29 35 -38 c33 -37 34 -39 20 -69 -7 -17 -17 -41 -21 -53 -6 -20 -13 -23 -61 -23 l-54 0 0 -120 0 -120 53 0 52 0 24 -62 c21 -54 21 -62 8 -70 -9 -4 -25 -21 -37 -37 l-20 -29 80 -81 c45 -45 84 -81 88 -81 3 0 22 16 42 35 l36 35 57 -23 57 -22 0 -52 0 -53 120 0 119 0 3 56 3 57 48 15 c26 8 47 19 47 24 0 5 18 -9 39 -31 22 -23 42 -41 45 -41 5 0 114 108 150 149 20 21 19 22 -18 60 l-38 39 21 40 c12 23 21 48 21 57 0 12 12 15 55 15 l55 0 0 120 0 120 -55 0 c-37 0 -55 4 -55 13 -1 6 -9 30 -20 52 l-19 40 35 35 c19 20 34 39 34 43 0 11 -155 167 -165 167 -4 0 -23 -16 -42 -35 l-33 -35 -51 20 c-27 11 -52 20 -54 20 -3 0 -5 25 -5 55 l0 55 -120 0 -120 0 0 -50 0 -50 -57 -25 -57 -26 -36 36 c-20 19 -40 35 -45 35 -6 0 -24 -14 -40 -32 l-30 -32 -3 102 -3 102 -49 0 c-39 0 -50 4 -50 15 0 9 -7 29 -15 46 -15 29 -15 31 15 60 16 17 30 34 30 38 0 3 -31 37 -69 75 -47 47 -74 67 -85 63 -9 -4 -16 -11 -16 -16 0 -24 -41 -33 -86 -20 l-44 13 0 48 0 48 -105 0 -105 0 0 -50z m170 -39 c0 -33 4 -41 23 -46 12 -4 43 -17 69 -31 l46 -24 30 29 30 30 40 -39 40 -40 -30 -30 c-27 -28 -29 -32 -16 -53 8 -12 22 -43 32 -69 17 -46 19 -48 57 -48 l39 0 0 -60 0 -60 -37 0 c-38 -1 -38 -1 -69 -75 l-31 -74 27 -30 27 -29 -38 -38 -38 -38 -23 20 c-13 10 -26 23 -29 28 -4 5 -31 -3 -60 -18 -29 -14 -61 -26 -71 -26 -15 0 -18 -8 -18 -45 l0 -45 -59 0 -60 0 -3 41 c-3 39 -5 43 -44 54 -22 7 -54 20 -71 30 -30 18 -31 18 -59 -9 -16 -14 -31 -26 -35 -26 -3 0 -21 17 -40 38 l-34 37 26 28 26 28 -31 74 c-31 74 -31 74 -68 75 l-38 0 0 60 0 60 39 0 c38 0 40 2 57 48 10 26 24 57 32 69 13 21 11 25 -16 53 l-31 30 42 39 41 39 29 -29 29 -30 44 25 c24 13 57 27 74 31 27 6 30 10 30 46 l0 39 60 0 60 0 0 -39z m860 -441 c0 -41 3 -50 18 -50 9 0 46 -14 80 -30 35 -17 69 -30 75 -30 6 0 25 13 42 30 l31 30 47 -48 47 -48 -34 -33 -34 -33 28 -57 c15 -31 30 -68 34 -83 6 -26 10 -28 56 -28 l50 0 0 -75 0 -75 -49 0 -49 0 -17 -52 c-9 -29 -26 -65 -37 -81 l-21 -29 37 -36 36 -36 -47 -48 -47 -48 -37 36 -36 35 -35 -21 c-19 -11 -58 -27 -86 -35 l-52 -16 0 -49 0 -50 -65 0 -65 0 0 49 0 49 -52 17 c-29 10 -68 26 -87 37 l-34 19 -34 -34 -35 -34 -26 27 c-71 72 -69 66 -32 104 l33 35 -23 36 c-12 20 -28 55 -35 78 -12 42 -13 42 -64 45 l-51 3 0 74 0 74 51 3 c51 3 52 3 64 45 7 23 23 58 35 78 l23 37 -37 37 -36 37 48 47 48 47 29 -30 c16 -16 34 -30 41 -30 7 0 41 13 76 30 34 16 71 30 81 30 14 0 17 9 17 50 l0 50 65 0 65 0 0 -50z"/>
 <path d="M9507 2140 c-94 -28 -122 -163 -49 -233 105 -101 271 -1 233 139 -22 79 -101 119 -184 94z m100 -59 c57 -35 53 -125 -8 -156 -33 -18 -50 -19 -82 -4 -65 29 -73 123 -14 159 40 25 64 25 104 1z"/>
 <path d="M10352 1647 c-141 -54 -129 -270 18 -308 155 -40 271 131 175 257 -14 18 -35 39 -46 44 -31 17 -111 21 -147 7z m123 -59 c68 -44 70 -143 4 -182 -67 -40 -142 -13 -168 60 -12 35 -12 44 3 74 31 67 100 87 161 48z"/>
 </g>
<g id="layer102" fill="#ff1d25" stroke="none">
 <path d="M9285 15974 c-18 -19 -25 -38 -25 -65 0 -22 5 -39 10 -39 6 0 10 -4 10 -9 0 -9 44 -87 185 -331 44 -74 94 -162 112 -195 19 -33 45 -78 59 -100 13 -22 36 -62 50 -90 15 -27 30 -52 34 -55 4 -3 9 -10 11 -16 2 -6 51 -92 109 -192 58 -100 110 -190 115 -199 61 -106 203 -352 220 -381 6 -9 37 -64 70 -122 33 -58 68 -118 77 -135 10 -16 30 -52 45 -79 16 -27 33 -56 38 -65 6 -9 28 -47 50 -86 21 -38 41 -72 44 -75 3 -3 17 -25 31 -50 13 -25 39 -70 57 -100 17 -30 41 -71 52 -91 l20 -36 -53 -94 c-29 -52 -78 -137 -108 -189 -31 -52 -83 -143 -117 -202 -33 -59 -70 -122 -80 -140 -11 -18 -38 -64 -59 -103 -45 -80 -167 -293 -181 -315 -5 -8 -57 -98 -115 -200 -58 -102 -110 -192 -116 -200 -12 -18 -209 -360 -279 -485 -28 -49 -64 -112 -81 -140 -16 -27 -44 -77 -62 -109 -18 -32 -38 -66 -43 -75 -6 -9 -37 -63 -70 -121 -33 -58 -64 -113 -70 -122 -5 -10 -38 -67 -73 -128 l-63 -110 -1294 0 c-799 0 -1303 -4 -1319 -10 -14 -5 -33 -24 -42 -41 -13 -27 -14 -39 -5 -70 7 -21 20 -43 31 -49 13 -7 457 -9 1362 -8 l1343 3 30 23 c16 13 41 44 56 70 25 45 120 210 162 282 11 19 37 64 57 100 20 36 46 81 58 100 11 19 44 76 71 125 58 103 156 273 170 295 6 8 29 49 52 90 23 41 63 111 89 155 26 44 59 100 73 125 80 140 141 246 192 335 32 55 84 145 115 200 31 55 66 116 78 135 11 19 39 67 60 105 51 90 169 295 181 315 6 8 34 58 64 110 29 52 77 136 107 185 42 72 54 101 58 146 5 61 9 52 -98 234 -29 50 -79 137 -112 195 -33 58 -86 150 -119 205 -32 55 -72 125 -89 155 -16 30 -41 73 -54 95 -14 22 -43 72 -64 110 -52 93 -169 296 -182 315 -5 8 -22 38 -38 65 -16 28 -38 66 -49 85 -11 19 -43 73 -69 120 -27 47 -53 93 -59 102 -5 9 -34 59 -63 110 -64 113 -110 191 -187 323 -32 55 -66 114 -75 130 -50 87 -68 117 -113 195 -59 101 -69 110 -119 110 -29 0 -45 -7 -63 -26z"/>
 <path d="M11120 13353 c-18 -7 -80 -64 -80 -74 0 -4 -13 -29 -29 -56 -16 -26 -58 -100 -95 -163 -37 -63 -71 -122 -76 -130 -6 -8 -21 -35 -35 -60 -14 -25 -36 -63 -50 -85 -13 -22 -38 -65 -55 -95 -17 -30 -39 -68 -49 -85 -19 -32 -167 -287 -185 -320 -6 -11 -14 -22 -17 -25 -4 -3 -18 -27 -33 -55 -29 -56 -41 -77 -133 -230 -7 -11 -15 -27 -19 -35 -7 -14 -54 -92 -81 -136 -7 -10 -22 -37 -34 -59 -24 -43 -243 -420 -259 -445 -5 -8 -21 -35 -35 -60 -14 -25 -38 -67 -55 -95 -17 -27 -41 -70 -55 -95 -14 -25 -30 -52 -35 -60 -12 -19 -117 -198 -161 -275 -19 -33 -38 -67 -44 -76 -5 -9 -21 -36 -34 -60 -13 -24 -32 -56 -42 -71 -36 -50 -26 -107 37 -222 31 -55 66 -117 79 -136 21 -34 66 -111 145 -250 73 -128 89 -156 140 -245 29 -49 74 -126 99 -170 25 -44 50 -87 56 -96 5 -9 22 -38 37 -65 15 -27 41 -71 58 -99 17 -27 44 -75 60 -105 16 -30 41 -73 54 -95 14 -22 48 -80 75 -130 63 -112 157 -275 171 -295 5 -8 21 -35 35 -60 14 -25 33 -58 43 -75 10 -16 31 -52 46 -80 105 -180 141 -237 157 -245 31 -17 77 -11 106 14 22 19 28 32 28 65 0 23 -5 45 -10 49 -6 4 -21 27 -35 52 -13 25 -38 70 -56 100 -18 30 -59 102 -92 160 -33 58 -83 146 -112 195 -88 151 -93 158 -124 213 -17 30 -36 61 -41 70 -6 9 -57 99 -115 200 -58 100 -110 190 -115 200 -6 9 -28 49 -50 87 -21 39 -42 72 -45 75 -4 3 -9 10 -11 15 -5 12 -95 173 -109 195 -12 18 -127 218 -184 318 -22 40 -46 81 -51 90 -6 9 -28 49 -50 87 -21 39 -42 72 -46 75 -14 10 -13 36 2 60 9 14 44 75 79 135 35 61 75 130 90 155 15 25 53 90 85 145 32 55 80 136 106 180 26 44 55 97 65 118 10 20 21 37 26 37 4 0 8 4 8 9 0 4 22 46 49 92 60 105 181 312 209 359 12 19 42 73 68 120 26 47 50 87 54 90 3 3 41 68 85 145 44 77 83 142 87 143 4 2 8 7 8 11 0 8 44 85 150 266 30 50 69 117 87 150 19 33 43 76 55 95 12 19 38 64 58 100 20 36 61 106 90 155 29 50 70 119 90 155 l38 65 1344 3 1344 2 17 -32 c9 -18 29 -54 44 -80 15 -26 59 -101 97 -167 87 -152 95 -161 151 -161 35 0 48 5 64 26 26 34 27 93 2 125 -10 13 -20 29 -22 34 -11 27 -84 150 -91 153 -4 2 -8 7 -8 12 0 4 -28 56 -61 115 -41 71 -72 113 -93 126 -30 18 -73 19 -1441 18 -775 0 -1417 -3 -1425 -6z"/>
 <path d="M12880 12741 l0 -158 -46 -39 c-104 -88 -175 -212 -198 -345 -49 -281 136 -545 457 -653 150 -50 381 -53 516 -6 48 17 63 18 125 9 86 -14 231 -6 306 17 312 93 475 370 375 638 -26 67 -41 91 -102 154 l-72 75 -3 133 -3 133 -144 -80 c-167 -91 -178 -93 -271 -30 -30 21 -71 44 -90 51 -19 7 -40 17 -47 22 -17 13 -67 27 -178 48 -107 21 -174 24 -244 11 -46 -9 -48 -8 -136 46 -11 7 -40 23 -65 35 -25 13 -51 29 -58 36 -7 6 -18 12 -23 12 -5 0 -27 11 -49 25 -22 14 -42 25 -45 25 -3 0 -5 -71 -5 -159z m380 -129 c36 5 100 7 144 4 78 -6 234 -47 269 -71 16 -11 15 -13 -19 -19 -87 -17 -239 -106 -297 -176 -138 -163 -155 -381 -44 -550 42 -63 64 -87 127 -134 l55 -41 -60 -7 c-88 -11 -250 5 -310 31 -156 68 -230 119 -295 205 -120 158 -125 336 -14 504 33 49 144 152 165 152 5 0 9 44 9 101 l0 100 103 -54 102 -55 65 10z m870 -177 c0 -41 4 -75 9 -75 19 0 131 -112 155 -156 55 -98 55 -219 1 -316 -34 -61 -120 -141 -190 -177 -136 -70 -342 -78 -490 -19 -150 60 -265 213 -265 353 0 140 118 297 265 352 104 39 141 45 255 42 l115 -4 65 37 c36 20 68 37 73 37 4 1 7 -33 7 -74z"/>
 <path d="M1547 7853 c-16 -8 -43 -38 -60 -67 -18 -28 -38 -60 -44 -71 -7 -11 -28 -47 -45 -79 -18 -32 -39 -68 -45 -80 -37 -63 3 -146 70 -146 55 0 64 10 164 193 l48 87 1597 0 1598 0 22 -38 c13 -21 29 -47 35 -57 7 -11 26 -45 43 -75 17 -30 42 -73 55 -95 14 -22 37 -62 51 -90 15 -27 30 -51 35 -53 5 -2 9 -7 9 -12 0 -4 24 -50 54 -101 121 -213 181 -316 299 -519 11 -19 34 -60 51 -90 16 -30 33 -57 36 -60 4 -3 9 -10 11 -15 3 -8 145 -256 224 -393 6 -9 28 -48 50 -87 21 -38 42 -72 45 -75 4 -3 9 -9 11 -15 5 -11 95 -172 109 -195 6 -8 28 -46 49 -83 l39 -68 -94 -162 c-52 -89 -98 -169 -104 -177 -5 -8 -22 -37 -38 -65 -16 -27 -38 -66 -49 -85 -11 -19 -36 -62 -55 -95 -19 -33 -58 -100 -87 -148 -28 -49 -51 -92 -51 -97 0 -5 -4 -10 -8 -12 -4 -1 -26 -34 -47 -73 -22 -38 -44 -77 -50 -86 -5 -9 -22 -38 -38 -65 -15 -27 -54 -94 -86 -149 -64 -108 -154 -264 -160 -280 -2 -5 -8 -14 -13 -20 -16 -18 -158 -266 -158 -275 0 -4 -4 -10 -8 -12 -4 -1 -26 -34 -47 -73 -22 -38 -44 -78 -50 -87 -5 -9 -24 -40 -41 -70 -17 -29 -40 -69 -51 -88 -11 -19 -36 -62 -55 -95 -19 -33 -58 -100 -87 -148 -28 -49 -51 -91 -51 -93 0 -3 -5 -10 -10 -17 -16 -18 -149 -249 -156 -269 -5 -17 -81 -18 -1397 -18 -1079 -1 -1396 -3 -1408 -13 -44 -34 -48 -106 -8 -143 20 -18 65 -19 1438 -21 l1416 -3 38 23 c22 12 46 36 55 52 10 17 20 32 23 35 4 3 18 28 33 55 14 28 39 73 56 100 17 28 42 70 55 95 14 25 51 88 82 140 30 52 76 131 102 175 25 44 50 88 56 97 5 9 48 81 94 160 45 79 92 159 104 178 11 19 45 78 75 130 31 52 90 154 132 225 42 72 92 157 111 190 19 33 39 67 44 76 6 9 22 38 37 65 15 27 41 72 58 99 17 28 42 70 55 95 14 25 50 86 79 135 29 50 79 135 111 190 32 55 73 125 91 155 18 30 56 96 84 145 28 50 76 132 106 184 78 135 77 150 -23 321 -101 173 -132 227 -176 305 -29 50 -56 97 -62 106 -5 9 -22 38 -37 65 -15 27 -41 72 -58 99 -17 28 -44 75 -60 105 -16 30 -41 73 -54 95 -14 22 -43 72 -64 110 -57 102 -170 298 -182 315 -5 8 -21 35 -35 60 -14 25 -38 68 -55 95 -17 28 -41 70 -55 95 -14 25 -35 61 -47 80 -11 19 -41 71 -66 115 -49 87 -51 91 -123 215 -27 47 -66 115 -87 152 -25 46 -48 73 -73 87 -37 21 -40 21 -1695 20 -1445 -1 -1663 -3 -1687 -16z"/>
 <path d="M10727 7853 c-24 -13 -48 -44 -104 -138 -49 -83 -219 -381 -222 -389 -2 -6 -7 -13 -11 -16 -3 -3 -24 -36 -45 -75 -22 -38 -44 -77 -50 -86 -5 -9 -25 -43 -43 -75 -18 -32 -41 -74 -52 -92 -11 -18 -48 -81 -81 -140 -34 -59 -86 -149 -115 -201 -30 -51 -54 -97 -54 -101 0 -5 -4 -10 -8 -12 -4 -1 -26 -34 -47 -73 -22 -38 -44 -77 -50 -86 -5 -9 -22 -38 -38 -65 -15 -27 -35 -62 -45 -79 -9 -16 -44 -77 -77 -135 -33 -58 -64 -112 -70 -121 -5 -9 -22 -38 -37 -65 -15 -27 -41 -71 -58 -99 -98 -164 -122 -217 -117 -252 8 -46 22 -61 64 -69 36 -7 103 16 103 35 0 4 30 60 66 122 37 63 84 146 106 184 21 39 50 88 64 110 13 22 36 62 49 88 14 26 41 71 59 100 18 29 46 76 62 106 16 30 34 61 39 70 6 9 33 57 62 106 44 78 99 172 176 305 11 19 34 60 51 90 16 30 32 57 36 60 4 3 9 12 13 20 4 8 29 53 56 100 27 47 73 127 103 178 29 52 58 101 63 110 6 10 32 55 59 102 26 47 58 101 69 120 11 19 33 58 49 85 16 28 37 64 47 80 l18 30 1596 3 1596 2 19 -27 c10 -16 36 -59 58 -98 21 -38 43 -78 49 -88 5 -9 57 -98 114 -197 57 -100 113 -187 125 -195 32 -23 83 -19 111 10 38 37 33 84 -16 169 -104 177 -136 234 -142 247 -4 8 -46 81 -95 164 -61 104 -97 156 -121 172 l-34 23 -1661 -1 c-1446 -1 -1665 -3 -1689 -16z"/>
 <path d="M65 7196 c-53 -23 -67 -57 -63 -150 2 -65 9 -92 32 -136 47 -92 118 -154 217 -190 78 -29 129 -27 160 8 56 61 57 58 -26 71 -142 21 -248 98 -279 202 -20 66 -20 84 0 103 14 14 79 16 564 16 485 0 550 -2 564 -16 20 -19 20 -37 0 -103 -31 -104 -137 -181 -279 -202 -83 -13 -82 -10 -26 -71 19 -22 34 -28 66 -28 43 0 130 28 172 55 106 70 173 185 175 302 1 81 -17 118 -69 139 -47 20 -1163 20 -1208 0z"/>
 <path d="M12980 6460 l0 -490 755 0 755 0 0 490 0 490 -755 0 -755 0 0 -490z m1430 30 c0 -209 -3 -380 -7 -380 -5 0 -24 15 -44 33 -44 38 -81 70 -139 117 -24 19 -141 117 -261 218 -120 100 -221 182 -225 182 -3 0 -11 -6 -18 -12 -14 -14 -5 -7 -316 -264 -124 -103 -241 -200 -260 -217 -19 -16 -45 -36 -57 -45 l-23 -14 0 381 0 381 675 0 675 0 0 -380z m-635 37 c15 -12 37 -31 50 -42 13 -12 41 -35 62 -53 21 -17 115 -96 208 -174 94 -79 188 -157 210 -175 l40 -32 -609 -1 -609 0 26 24 c14 13 35 30 45 38 10 7 43 34 73 60 50 43 202 171 310 259 24 20 69 57 99 82 30 25 58 43 62 41 4 -2 19 -14 33 -27z"/>
 <path d="M533 6760 c-99 -46 -169 -127 -215 -245 -20 -51 -23 -78 -23 -185 0 -134 13 -187 71 -286 61 -104 193 -184 304 -184 84 0 191 50 253 119 118 130 158 334 103 514 -40 129 -111 217 -219 267 -51 25 -75 30 -137 30 -62 0 -86 -5 -137 -30z m234 -85 c46 -19 114 -92 145 -155 97 -197 22 -459 -156 -544 -49 -23 -132 -21 -181 5 -218 115 -257 459 -72 641 75 74 168 93 264 53z"/>
 <path d="M6469 5429 c-24 -14 -48 -43 -73 -88 -83 -148 -256 -447 -266 -458 -5 -7 -10 -14 -10 -16 0 -5 -123 -222 -140 -247 -5 -8 -25 -42 -42 -74 -18 -32 -38 -66 -43 -75 -6 -9 -37 -63 -70 -121 -33 -58 -64 -112 -70 -121 -5 -9 -22 -38 -37 -65 -16 -27 -44 -76 -63 -109 -19 -33 -58 -100 -86 -150 -27 -49 -75 -133 -105 -185 -84 -143 -105 -180 -138 -240 -16 -30 -33 -56 -38 -58 -4 -2 -8 -7 -8 -12 0 -7 -115 -213 -140 -250 -5 -8 -25 -42 -42 -74 -18 -32 -38 -66 -43 -75 -6 -9 -37 -63 -70 -121 -33 -58 -64 -113 -70 -122 -79 -131 -105 -189 -105 -235 0 -50 -4 -42 138 -287 29 -49 52 -92 52 -97 0 -4 4 -9 9 -11 5 -1 20 -25 35 -53 14 -27 34 -63 44 -80 9 -16 42 -73 72 -125 30 -52 60 -103 65 -112 6 -9 32 -56 59 -105 27 -48 57 -99 66 -113 16 -23 48 -79 140 -240 20 -36 46 -81 58 -100 11 -19 33 -57 48 -85 15 -27 46 -81 69 -120 23 -38 57 -97 76 -130 19 -33 39 -67 44 -76 6 -9 22 -38 37 -65 15 -27 41 -71 58 -99 17 -27 44 -75 60 -105 16 -30 41 -73 54 -95 14 -22 48 -80 76 -130 182 -320 170 -305 234 -305 36 0 48 5 65 26 12 15 21 40 21 55 0 26 -49 125 -116 234 -13 22 -36 63 -50 90 -15 28 -30 52 -34 55 -4 3 -9 10 -11 16 -2 6 -51 92 -109 192 -58 100 -110 190 -115 199 -54 94 -198 344 -220 381 -6 9 -57 99 -115 200 -58 100 -110 190 -115 200 -6 9 -28 49 -50 87 -21 39 -41 72 -44 75 -3 3 -17 25 -31 50 -13 25 -39 70 -56 100 -18 30 -57 97 -86 148 -29 52 -58 101 -63 110 -6 10 -28 49 -49 87 -21 39 -49 86 -61 105 -12 19 -34 55 -48 80 l-25 46 45 79 c51 89 56 99 138 240 101 173 173 298 204 355 17 30 44 78 60 105 16 28 49 84 72 125 23 41 61 107 84 145 23 39 54 93 69 120 15 28 37 66 48 85 12 19 38 64 58 100 31 55 91 159 170 295 9 17 43 75 75 130 101 173 173 298 204 355 17 30 44 78 60 105 16 28 49 84 72 125 23 41 63 111 89 155 76 127 99 168 110 193 l10 22 1262 0 1263 0 14 -21 c7 -12 21 -36 31 -53 9 -17 43 -76 75 -131 32 -55 74 -129 95 -165 20 -36 46 -81 58 -100 11 -19 33 -57 48 -85 15 -27 46 -81 69 -120 23 -38 61 -104 84 -145 23 -41 56 -97 72 -125 16 -27 43 -75 60 -105 31 -57 103 -183 204 -355 32 -55 68 -118 80 -140 13 -22 47 -80 76 -130 28 -49 69 -119 89 -155 20 -36 46 -81 58 -100 11 -19 33 -57 48 -85 15 -27 46 -81 69 -120 23 -38 61 -104 84 -145 23 -41 56 -97 72 -125 16 -27 43 -75 60 -105 16 -30 52 -93 79 -140 l49 -85 -29 -50 c-15 -27 -49 -86 -74 -130 -68 -117 -58 -180 29 -192 54 -7 82 17 140 120 25 45 61 109 80 142 45 78 47 138 7 210 -41 72 -79 138 -134 234 -26 46 -48 87 -48 92 0 4 -4 9 -8 11 -5 2 -22 28 -38 58 -33 60 -54 97 -138 240 -30 52 -79 137 -108 188 -29 52 -58 101 -63 110 -6 10 -33 57 -60 105 -28 49 -55 96 -60 105 -6 9 -37 64 -70 122 -33 58 -64 112 -70 121 -5 9 -25 43 -43 75 -17 32 -37 66 -42 74 -25 37 -140 243 -140 250 0 5 -4 10 -9 12 -5 2 -20 26 -35 53 -14 28 -34 64 -44 80 -9 17 -41 73 -71 125 -29 52 -64 111 -76 130 -12 19 -69 117 -126 218 -57 100 -109 190 -114 200 -6 9 -29 51 -53 93 -31 56 -52 81 -81 97 l-39 22 -1318 0 -1319 0 -36 -21z"/>
 <path d="M9450 2430 c0 -38 -4 -50 -15 -50 -9 0 -29 -7 -44 -15 -27 -13 -30 -13 -57 15 -16 16 -34 30 -39 30 -6 0 -42 -31 -80 -70 l-69 -70 32 -32 31 -33 -17 -48 -17 -47 -47 0 -48 0 0 -105 0 -105 48 0 c47 0 47 0 63 -44 16 -44 16 -44 -13 -75 -15 -16 -28 -33 -28 -36 0 -4 32 -39 71 -77 70 -69 70 -70 92 -52 12 10 27 24 33 31 8 9 21 8 57 -5 l47 -17 0 -47 0 -48 105 0 105 0 0 48 0 47 47 17 48 17 32 -31 32 -31 70 69 c39 38 71 73 71 77 0 4 -13 22 -28 38 -29 31 -29 31 -13 75 15 43 17 44 58 44 33 0 41 -3 37 -14 -3 -8 -11 -17 -19 -19 -7 -3 -22 -19 -33 -35 l-21 -29 35 -38 c33 -37 34 -39 20 -69 -7 -17 -17 -41 -21 -53 -6 -20 -13 -23 -61 -23 l-54 0 0 -120 0 -120 53 0 52 0 24 -62 c21 -54 21 -62 8 -70 -9 -4 -25 -21 -37 -37 l-20 -29 80 -81 c45 -45 84 -81 88 -81 3 0 22 16 42 35 l36 35 57 -23 57 -22 0 -52 0 -53 120 0 119 0 3 56 3 57 48 15 c26 8 47 19 47 24 0 5 18 -9 39 -31 22 -23 42 -41 45 -41 5 0 114 108 150 149 20 21 19 22 -18 60 l-38 39 21 40 c12 23 21 48 21 57 0 12 12 15 55 15 l55 0 0 120 0 120 -55 0 c-37 0 -55 4 -55 13 -1 6 -9 30 -20 52 l-19 40 35 35 c19 20 34 39 34 43 0 11 -155 167 -165 167 -4 0 -23 -16 -42 -35 l-33 -35 -51 20 c-27 11 -52 20 -54 20 -3 0 -5 25 -5 55 l0 55 -120 0 -120 0 0 -50 0 -50 -57 -25 -57 -26 -36 36 c-20 19 -40 35 -45 35 -6 0 -24 -14 -40 -32 l-30 -32 -3 102 -3 102 -49 0 c-39 0 -50 4 -50 15 0 9 -7 29 -15 46 -15 29 -15 31 15 60 16 17 30 34 30 38 0 3 -31 37 -69 75 -47 47 -74 67 -85 63 -9 -4 -16 -11 -16 -16 0 -24 -41 -33 -86 -20 l-44 13 0 48 0 48 -105 0 -105 0 0 -50z m170 -39 c0 -33 4 -41 23 -46 12 -4 43 -17 69 -31 l46 -24 30 29 30 30 40 -39 40 -40 -30 -30 c-27 -28 -29 -32 -16 -53 8 -12 22 -43 32 -69 17 -46 19 -48 57 -48 l39 0 0 -60 0 -60 -37 0 c-38 -1 -38 -1 -69 -75 l-31 -74 27 -30 27 -29 -38 -38 -38 -38 -23 20 c-13 10 -26 23 -29 28 -4 5 -31 -3 -60 -18 -29 -14 -61 -26 -71 -26 -15 0 -18 -8 -18 -45 l0 -45 -59 0 -60 0 -3 41 c-3 39 -5 43 -44 54 -22 7 -54 20 -71 30 -30 18 -31 18 -59 -9 -16 -14 -31 -26 -35 -26 -3 0 -21 17 -40 38 l-34 37 26 28 26 28 -31 74 c-31 74 -31 74 -68 75 l-38 0 0 60 0 60 39 0 c38 0 40 2 57 48 10 26 24 57 32 69 13 21 11 25 -16 53 l-31 30 42 39 41 39 29 -29 29 -30 44 25 c24 13 57 27 74 31 27 6 30 10 30 46 l0 39 60 0 60 0 0 -39z m860 -441 c0 -41 3 -50 18 -50 9 0 46 -14 80 -30 35 -17 69 -30 75 -30 6 0 25 13 42 30 l31 30 47 -48 47 -48 -34 -33 -34 -33 28 -57 c15 -31 30 -68 34 -83 6 -26 10 -28 56 -28 l50 0 0 -75 0 -75 -49 0 -49 0 -17 -52 c-9 -29 -26 -65 -37 -81 l-21 -29 37 -36 36 -36 -47 -48 -47 -48 -37 36 -36 35 -35 -21 c-19 -11 -58 -27 -86 -35 l-52 -16 0 -49 0 -50 -65 0 -65 0 0 49 0 49 -52 17 c-29 10 -68 26 -87 37 l-34 19 -34 -34 -35 -34 -26 27 c-71 72 -69 66 -32 104 l33 35 -23 36 c-12 20 -28 55 -35 78 -12 42 -13 42 -64 45 l-51 3 0 74 0 74 51 3 c51 3 52 3 64 45 7 23 23 58 35 78 l23 37 -37 37 -36 37 48 47 48 47 29 -30 c16 -16 34 -30 41 -30 7 0 41 13 76 30 34 16 71 30 81 30 14 0 17 9 17 50 l0 50 65 0 65 0 0 -50z"/>
 <path d="M9507 2140 c-94 -28 -122 -163 -49 -233 105 -101 271 -1 233 139 -22 79 -101 119 -184 94z m100 -59 c57 -35 53 -125 -8 -156 -33 -18 -50 -19 -82 -4 -65 29 -73 123 -14 159 40 25 64 25 104 1z"/>
 <path d="M10352 1647 c-141 -54 -129 -270 18 -308 155 -40 271 131 175 257 -14 18 -35 39 -46 44 -31 17 -111 21 -147 7z m123 -59 c68 -44 70 -143 4 -182 -67 -40 -142 -13 -168 60 -12 35 -12 44 3 74 31 67 100 87 161 48z"/>
 </g>
<g id="layer103" fill="#85c540" stroke="none">
 <path d="M9285 15974 c-18 -19 -25 -38 -25 -65 0 -22 5 -39 10 -39 6 0 10 -4 10 -9 0 -9 44 -87 185 -331 44 -74 94 -162 112 -195 19 -33 45 -78 59 -100 13 -22 36 -62 50 -90 15 -27 30 -52 34 -55 4 -3 9 -10 11 -16 2 -6 51 -92 109 -192 58 -100 110 -190 115 -199 61 -106 203 -352 220 -381 6 -9 37 -64 70 -122 33 -58 68 -118 77 -135 10 -16 30 -52 45 -79 16 -27 33 -56 38 -65 6 -9 28 -47 50 -86 21 -38 41 -72 44 -75 3 -3 17 -25 31 -50 13 -25 39 -70 57 -100 17 -30 41 -71 52 -91 l20 -36 -53 -94 c-29 -52 -78 -137 -108 -189 -31 -52 -83 -143 -117 -202 -33 -59 -70 -122 -80 -140 -11 -18 -38 -64 -59 -103 -45 -80 -167 -293 -181 -315 -5 -8 -57 -98 -115 -200 -58 -102 -110 -192 -116 -200 -12 -18 -209 -360 -279 -485 -28 -49 -64 -112 -81 -140 -16 -27 -44 -77 -62 -109 -18 -32 -38 -66 -43 -75 -6 -9 -37 -63 -70 -121 -33 -58 -64 -113 -70 -122 -5 -10 -38 -67 -73 -128 l-63 -110 -1294 0 c-799 0 -1303 -4 -1319 -10 -14 -5 -33 -24 -42 -41 -13 -27 -14 -39 -5 -70 7 -21 20 -43 31 -49 13 -7 457 -9 1362 -8 l1343 3 30 23 c16 13 41 44 56 70 25 45 120 210 162 282 11 19 37 64 57 100 20 36 46 81 58 100 11 19 44 76 71 125 58 103 156 273 170 295 6 8 29 49 52 90 23 41 63 111 89 155 26 44 59 100 73 125 80 140 141 246 192 335 32 55 84 145 115 200 31 55 66 116 78 135 11 19 39 67 60 105 51 90 169 295 181 315 6 8 34 58 64 110 29 52 77 136 107 185 42 72 54 101 58 146 5 61 9 52 -98 234 -29 50 -79 137 -112 195 -33 58 -86 150 -119 205 -32 55 -72 125 -89 155 -16 30 -41 73 -54 95 -14 22 -43 72 -64 110 -52 93 -169 296 -182 315 -5 8 -22 38 -38 65 -16 28 -38 66 -49 85 -11 19 -43 73 -69 120 -27 47 -53 93 -59 102 -5 9 -34 59 -63 110 -64 113 -110 191 -187 323 -32 55 -66 114 -75 130 -50 87 -68 117 -113 195 -59 101 -69 110 -119 110 -29 0 -45 -7 -63 -26z"/>
 <path d="M11120 13353 c-18 -7 -80 -64 -80 -74 0 -4 -13 -29 -29 -56 -16 -26 -58 -100 -95 -163 -37 -63 -71 -122 -76 -130 -6 -8 -21 -35 -35 -60 -14 -25 -36 -63 -50 -85 -13 -22 -38 -65 -55 -95 -17 -30 -39 -68 -49 -85 -19 -32 -167 -287 -185 -320 -6 -11 -14 -22 -17 -25 -4 -3 -18 -27 -33 -55 -29 -56 -41 -77 -133 -230 -7 -11 -15 -27 -19 -35 -7 -14 -54 -92 -81 -136 -7 -10 -22 -37 -34 -59 -24 -43 -243 -420 -259 -445 -5 -8 -21 -35 -35 -60 -14 -25 -38 -67 -55 -95 -17 -27 -41 -70 -55 -95 -14 -25 -30 -52 -35 -60 -12 -19 -117 -198 -161 -275 -19 -33 -38 -67 -44 -76 -5 -9 -21 -36 -34 -60 -13 -24 -32 -56 -42 -71 -36 -50 -26 -107 37 -222 31 -55 66 -117 79 -136 21 -34 66 -111 145 -250 73 -128 89 -156 140 -245 29 -49 74 -126 99 -170 25 -44 50 -87 56 -96 5 -9 22 -38 37 -65 15 -27 41 -71 58 -99 17 -27 44 -75 60 -105 16 -30 41 -73 54 -95 14 -22 48 -80 75 -130 63 -112 157 -275 171 -295 5 -8 21 -35 35 -60 14 -25 33 -58 43 -75 10 -16 31 -52 46 -80 105 -180 141 -237 157 -245 31 -17 77 -11 106 14 22 19 28 32 28 65 0 23 -5 45 -10 49 -6 4 -21 27 -35 52 -13 25 -38 70 -56 100 -18 30 -59 102 -92 160 -33 58 -83 146 -112 195 -88 151 -93 158 -124 213 -17 30 -36 61 -41 70 -6 9 -57 99 -115 200 -58 100 -110 190 -115 200 -6 9 -28 49 -50 87 -21 39 -42 72 -45 75 -4 3 -9 10 -11 15 -5 12 -95 173 -109 195 -12 18 -127 218 -184 318 -22 40 -46 81 -51 90 -6 9 -28 49 -50 87 -21 39 -42 72 -46 75 -14 10 -13 36 2 60 9 14 44 75 79 135 35 61 75 130 90 155 15 25 53 90 85 145 32 55 80 136 106 180 26 44 55 97 65 118 10 20 21 37 26 37 4 0 8 4 8 9 0 4 22 46 49 92 60 105 181 312 209 359 12 19 42 73 68 120 26 47 50 87 54 90 3 3 41 68 85 145 44 77 83 142 87 143 4 2 8 7 8 11 0 8 44 85 150 266 30 50 69 117 87 150 19 33 43 76 55 95 12 19 38 64 58 100 20 36 61 106 90 155 29 50 70 119 90 155 l38 65 1344 3 1344 2 17 -32 c9 -18 29 -54 44 -80 15 -26 59 -101 97 -167 87 -152 95 -161 151 -161 35 0 48 5 64 26 26 34 27 93 2 125 -10 13 -20 29 -22 34 -11 27 -84 150 -91 153 -4 2 -8 7 -8 12 0 4 -28 56 -61 115 -41 71 -72 113 -93 126 -30 18 -73 19 -1441 18 -775 0 -1417 -3 -1425 -6z"/>
 <path d="M12880 12741 l0 -158 -46 -39 c-104 -88 -175 -212 -198 -345 -49 -281 136 -545 457 -653 150 -50 381 -53 516 -6 48 17 63 18 125 9 86 -14 231 -6 306 17 312 93 475 370 375 638 -26 67 -41 91 -102 154 l-72 75 -3 133 -3 133 -144 -80 c-167 -91 -178 -93 -271 -30 -30 21 -71 44 -90 51 -19 7 -40 17 -47 22 -17 13 -67 27 -178 48 -107 21 -174 24 -244 11 -46 -9 -48 -8 -136 46 -11 7 -40 23 -65 35 -25 13 -51 29 -58 36 -7 6 -18 12 -23 12 -5 0 -27 11 -49 25 -22 14 -42 25 -45 25 -3 0 -5 -71 -5 -159z m380 -129 c36 5 100 7 144 4 78 -6 234 -47 269 -71 16 -11 15 -13 -19 -19 -87 -17 -239 -106 -297 -176 -138 -163 -155 -381 -44 -550 42 -63 64 -87 127 -134 l55 -41 -60 -7 c-88 -11 -250 5 -310 31 -156 68 -230 119 -295 205 -120 158 -125 336 -14 504 33 49 144 152 165 152 5 0 9 44 9 101 l0 100 103 -54 102 -55 65 10z m870 -177 c0 -41 4 -75 9 -75 19 0 131 -112 155 -156 55 -98 55 -219 1 -316 -34 -61 -120 -141 -190 -177 -136 -70 -342 -78 -490 -19 -150 60 -265 213 -265 353 0 140 118 297 265 352 104 39 141 45 255 42 l115 -4 65 37 c36 20 68 37 73 37 4 1 7 -33 7 -74z"/>
 <path d="M1542 7848 c-18 -11 -45 -41 -60 -66 -15 -26 -31 -54 -37 -63 -5 -9 -26 -44 -45 -79 -19 -35 -41 -72 -47 -84 -37 -63 3 -146 70 -146 55 0 64 10 164 193 l48 87 1597 0 1598 0 22 -38 c13 -21 29 -47 35 -57 7 -11 26 -45 43 -75 17 -30 42 -73 55 -95 14 -22 37 -62 51 -90 15 -27 30 -51 35 -53 5 -2 9 -7 9 -12 0 -4 24 -50 54 -101 121 -213 181 -316 299 -519 11 -19 34 -59 51 -88 17 -30 36 -61 41 -70 6 -9 57 -99 115 -200 58 -100 110 -190 115 -200 6 -9 28 -48 50 -87 21 -38 42 -72 45 -75 4 -3 9 -9 11 -15 5 -11 95 -172 109 -195 6 -8 28 -46 49 -83 l39 -68 -94 -162 c-52 -89 -98 -169 -104 -177 -5 -8 -22 -37 -38 -65 -16 -27 -38 -66 -49 -85 -11 -19 -36 -62 -55 -95 -19 -33 -58 -100 -87 -148 -28 -49 -51 -92 -51 -97 0 -5 -4 -10 -8 -12 -4 -1 -26 -34 -47 -73 -22 -38 -44 -77 -50 -86 -5 -9 -22 -38 -38 -65 -15 -27 -54 -94 -86 -149 -64 -108 -154 -264 -160 -280 -2 -5 -8 -14 -13 -20 -16 -18 -158 -266 -158 -275 0 -4 -4 -10 -8 -12 -4 -1 -26 -34 -47 -73 -22 -38 -44 -77 -50 -86 -5 -9 -21 -36 -34 -60 -13 -24 -43 -75 -66 -114 -59 -100 -149 -254 -171 -295 -10 -19 -23 -39 -27 -45 -16 -20 -147 -251 -153 -267 -5 -17 -81 -18 -1397 -18 -1079 -1 -1396 -3 -1408 -13 -44 -34 -48 -106 -8 -143 20 -18 65 -19 1438 -21 l1416 -3 39 23 c36 21 51 40 111 147 14 25 38 68 55 95 17 28 42 70 55 95 14 25 51 88 82 140 30 52 76 131 102 175 25 44 50 88 56 97 5 9 48 81 94 160 45 79 92 159 104 178 11 19 45 78 75 130 31 52 90 154 132 225 42 72 92 157 111 190 19 33 39 68 44 77 6 9 24 40 41 70 17 29 40 69 51 88 11 19 36 62 55 95 19 33 59 101 88 150 29 50 78 133 108 185 31 52 70 120 88 150 18 30 56 96 84 145 28 50 76 132 106 184 78 135 77 150 -23 321 -101 173 -132 227 -176 305 -29 50 -56 98 -62 107 -5 9 -24 40 -41 70 -17 29 -40 69 -51 88 -11 19 -43 73 -69 120 -27 47 -53 93 -59 102 -5 9 -29 50 -51 90 -62 110 -173 301 -184 318 -5 8 -21 35 -35 60 -14 25 -38 68 -55 95 -17 28 -43 72 -58 99 -15 27 -32 56 -37 65 -12 19 -127 219 -138 241 -4 8 -30 53 -57 100 -28 47 -67 115 -88 152 -25 46 -48 73 -73 87 -37 21 -40 21 -1695 20 -1646 -1 -1659 -1 -1692 -21z"/>
 <path d="M10727 7853 c-24 -13 -48 -44 -104 -138 -49 -83 -219 -381 -222 -389 -2 -6 -7 -13 -11 -16 -3 -3 -24 -36 -45 -75 -22 -38 -44 -77 -50 -87 -5 -9 -26 -45 -46 -80 -19 -34 -70 -124 -114 -198 -138 -239 -185 -322 -185 -330 0 -5 -4 -10 -8 -12 -4 -1 -26 -34 -47 -73 -22 -38 -44 -77 -50 -86 -5 -9 -22 -38 -38 -65 -15 -27 -35 -62 -45 -79 -9 -16 -44 -77 -77 -135 -33 -58 -64 -112 -70 -121 -5 -9 -22 -38 -37 -65 -15 -27 -41 -71 -58 -99 -98 -164 -122 -217 -117 -252 8 -46 22 -61 64 -69 36 -7 103 16 103 35 0 4 30 60 66 122 37 63 85 147 108 187 22 40 46 81 51 90 6 9 32 55 59 102 60 103 147 255 161 278 6 9 33 58 62 107 28 50 75 131 103 180 85 146 92 157 130 225 78 137 124 216 145 250 13 19 45 76 73 125 43 78 82 146 175 305 11 19 33 58 49 85 16 28 37 64 47 80 l18 30 1596 3 1596 2 19 -27 c10 -16 36 -59 58 -98 21 -38 43 -78 49 -88 5 -9 57 -98 114 -197 57 -100 113 -187 125 -195 32 -23 83 -19 111 10 38 37 33 84 -16 169 -104 177 -136 234 -142 247 -4 8 -46 81 -95 164 -61 104 -97 156 -121 172 l-34 23 -1661 -1 c-1446 -1 -1665 -3 -1689 -16z"/>
 <path d="M65 7196 c-53 -23 -67 -57 -63 -150 2 -65 9 -92 32 -136 47 -92 118 -154 217 -190 78 -29 129 -27 160 8 56 61 57 58 -26 71 -142 21 -248 98 -279 202 -20 66 -20 84 0 103 14 14 79 16 564 16 485 0 550 -2 564 -16 20 -19 20 -37 0 -103 -31 -104 -137 -181 -279 -202 -83 -13 -82 -10 -26 -71 19 -22 34 -28 66 -28 43 0 130 28 172 55 106 70 173 185 175 302 1 81 -17 118 -69 139 -47 20 -1163 20 -1208 0z"/>
 <path d="M12980 6460 l0 -490 755 0 755 0 0 490 0 490 -755 0 -755 0 0 -490z m1430 30 c0 -209 -3 -380 -7 -380 -5 0 -24 15 -44 33 -43 37 -80 70 -135 114 -21 17 -139 115 -262 217 -122 102 -225 186 -227 186 -5 0 -20 -12 -80 -65 -13 -11 -40 -34 -61 -51 -101 -83 -472 -391 -494 -411 -14 -13 -28 -23 -32 -23 -5 0 -8 171 -8 380 l0 380 675 0 675 0 0 -380z m-635 37 c15 -12 37 -31 50 -42 13 -12 41 -35 62 -53 21 -17 115 -96 208 -174 94 -79 188 -157 210 -175 l40 -32 -609 -1 -609 0 26 24 c14 13 35 30 45 38 10 7 43 34 73 60 144 127 464 386 470 382 4 -2 20 -14 34 -27z"/>
 <path d="M533 6760 c-99 -46 -169 -127 -215 -245 -20 -51 -23 -78 -23 -185 0 -134 13 -187 71 -286 60 -102 194 -184 298 -184 117 0 236 71 306 181 103 160 105 420 4 572 -106 160 -287 221 -441 147z m205 -75 c64 -19 136 -87 174 -165 78 -159 45 -378 -73 -484 -64 -57 -106 -76 -171 -76 -174 0 -313 217 -278 435 22 135 111 259 208 289 61 19 78 19 140 1z"/>
 </g>
<g id="layer104" fill="#ff921e" stroke="none">
 <path d="M9285 15974 c-18 -19 -25 -38 -25 -65 0 -22 5 -39 10 -39 6 0 10 -4 10 -9 0 -9 44 -87 185 -331 44 -74 94 -162 112 -195 19 -33 45 -78 59 -100 13 -22 36 -62 50 -90 15 -27 30 -52 34 -55 4 -3 9 -10 11 -16 2 -6 51 -92 109 -192 58 -100 110 -190 115 -199 61 -106 203 -352 220 -381 6 -9 37 -64 70 -122 33 -58 68 -118 77 -135 10 -16 30 -52 45 -79 16 -27 33 -56 38 -65 6 -9 28 -47 50 -86 21 -38 41 -72 44 -75 3 -3 17 -25 31 -50 13 -25 39 -70 57 -100 17 -30 41 -71 52 -91 l20 -36 -53 -94 c-29 -52 -78 -137 -108 -189 -31 -52 -83 -143 -117 -202 -33 -59 -70 -122 -80 -140 -11 -18 -38 -64 -59 -103 -45 -80 -167 -293 -181 -315 -5 -8 -57 -98 -115 -200 -58 -102 -110 -192 -116 -200 -12 -18 -209 -360 -279 -485 -28 -49 -64 -112 -81 -140 -16 -27 -44 -77 -62 -109 -18 -32 -38 -66 -43 -75 -6 -9 -37 -63 -70 -121 -33 -58 -64 -113 -70 -122 -5 -10 -38 -67 -73 -128 l-63 -110 -1294 0 c-799 0 -1303 -4 -1319 -10 -14 -5 -33 -24 -42 -41 -13 -27 -14 -39 -5 -70 7 -21 20 -43 31 -49 13 -7 457 -9 1362 -8 l1343 3 30 23 c16 13 41 44 56 70 25 45 120 210 162 282 11 19 37 64 57 100 20 36 46 81 58 100 11 19 44 76 71 125 58 103 156 273 170 295 6 8 29 49 52 90 23 41 63 111 89 155 26 44 59 100 73 125 80 140 141 246 192 335 32 55 84 145 115 200 31 55 66 116 78 135 11 19 39 67 60 105 51 90 169 295 181 315 6 8 34 58 64 110 29 52 77 136 107 185 42 72 54 101 58 146 5 61 9 52 -98 234 -29 50 -79 137 -112 195 -33 58 -86 150 -119 205 -32 55 -72 125 -89 155 -16 30 -41 73 -54 95 -14 22 -43 72 -64 110 -52 93 -169 296 -182 315 -5 8 -22 38 -38 65 -16 28 -38 66 -49 85 -11 19 -43 73 -69 120 -27 47 -53 93 -59 102 -5 9 -34 59 -63 110 -64 113 -110 191 -187 323 -32 55 -66 114 -75 130 -50 87 -68 117 -113 195 -59 101 -69 110 -119 110 -29 0 -45 -7 -63 -26z"/>
 <path d="M1542 7848 c-18 -11 -45 -41 -60 -66 -15 -26 -31 -54 -37 -63 -5 -9 -26 -44 -45 -79 -19 -35 -41 -72 -47 -84 -37 -63 3 -146 70 -146 55 0 64 10 164 193 l48 87 1597 0 1598 0 22 -38 c13 -21 29 -47 35 -57 7 -11 26 -45 43 -75 17 -30 42 -73 55 -95 14 -22 37 -62 51 -90 15 -27 30 -51 35 -53 5 -2 9 -7 9 -12 0 -4 24 -50 54 -101 121 -213 181 -316 299 -519 11 -19 34 -59 51 -88 17 -30 36 -61 41 -70 6 -9 57 -99 115 -200 58 -100 110 -190 115 -200 6 -9 28 -48 50 -87 21 -38 42 -72 45 -75 4 -3 9 -9 11 -15 5 -11 95 -172 109 -195 6 -8 28 -46 49 -83 l39 -68 -94 -162 c-52 -89 -98 -169 -104 -177 -5 -8 -22 -37 -38 -65 -16 -27 -38 -66 -49 -85 -11 -19 -36 -62 -55 -95 -19 -33 -58 -100 -87 -148 -28 -49 -51 -92 -51 -97 0 -5 -4 -10 -8 -12 -4 -1 -26 -34 -47 -73 -22 -38 -44 -77 -50 -86 -5 -9 -22 -38 -38 -65 -15 -27 -54 -94 -86 -149 -64 -108 -154 -264 -160 -280 -2 -5 -8 -14 -13 -20 -16 -18 -158 -266 -158 -275 0 -4 -4 -10 -8 -12 -4 -1 -26 -34 -47 -73 -22 -38 -44 -77 -50 -86 -5 -9 -21 -36 -34 -60 -13 -24 -43 -75 -66 -114 -59 -100 -149 -254 -171 -295 -10 -19 -23 -39 -27 -45 -16 -20 -147 -251 -153 -267 -5 -17 -81 -18 -1397 -18 -1079 -1 -1396 -3 -1408 -13 -44 -34 -48 -106 -8 -143 20 -18 65 -19 1438 -21 l1416 -3 39 23 c36 21 51 40 111 147 14 25 38 68 55 95 17 28 42 70 55 95 14 25 51 88 82 140 30 52 76 131 102 175 25 44 50 88 56 97 5 9 48 81 94 160 45 79 92 159 104 178 11 19 45 78 75 130 31 52 90 154 132 225 42 72 92 157 111 190 19 33 39 68 44 77 6 9 24 40 41 70 17 29 40 69 51 88 11 19 36 62 55 95 19 33 59 101 88 150 29 50 78 133 108 185 31 52 70 120 88 150 18 30 56 96 84 145 28 50 76 132 106 184 78 135 77 150 -23 321 -101 173 -132 227 -176 305 -29 50 -56 98 -62 107 -5 9 -24 40 -41 70 -17 29 -40 69 -51 88 -11 19 -43 73 -69 120 -27 47 -53 93 -59 102 -5 9 -29 50 -51 90 -62 110 -173 301 -184 318 -5 8 -21 35 -35 60 -14 25 -38 68 -55 95 -17 28 -43 72 -58 99 -15 27 -32 56 -37 65 -12 19 -127 219 -138 241 -4 8 -30 53 -57 100 -28 47 -67 115 -88 152 -25 46 -48 73 -73 87 -37 21 -40 21 -1695 20 -1646 -1 -1659 -1 -1692 -21z"/>
 <path d="M10727 7853 c-24 -13 -48 -44 -104 -138 -49 -83 -219 -381 -222 -389 -2 -6 -7 -13 -11 -16 -3 -3 -24 -36 -45 -75 -22 -38 -44 -77 -50 -87 -5 -9 -26 -45 -46 -80 -19 -34 -70 -124 -114 -198 -138 -239 -185 -322 -185 -330 0 -5 -4 -10 -8 -12 -4 -1 -26 -34 -47 -73 -22 -38 -44 -77 -50 -86 -5 -9 -22 -38 -38 -65 -15 -27 -35 -62 -45 -79 -9 -16 -44 -77 -77 -135 -33 -58 -64 -112 -70 -121 -5 -9 -22 -38 -37 -65 -15 -27 -41 -71 -58 -99 -98 -164 -122 -217 -117 -252 8 -46 22 -61 64 -69 36 -7 103 16 103 35 0 4 30 60 66 122 37 63 85 147 108 187 22 40 46 81 51 90 6 9 32 55 59 102 60 103 147 255 161 278 6 9 33 58 62 107 28 50 75 131 103 180 85 146 92 157 130 225 78 137 124 216 145 250 13 19 45 76 73 125 43 78 82 146 175 305 11 19 33 58 49 85 16 28 37 64 47 80 l18 30 1596 3 1596 2 19 -27 c10 -16 36 -59 58 -98 21 -38 43 -78 49 -88 5 -9 57 -98 114 -197 57 -100 113 -187 125 -195 32 -23 83 -19 111 10 38 37 33 84 -16 169 -104 177 -136 234 -142 247 -4 8 -46 81 -95 164 -61 104 -97 156 -121 172 l-34 23 -1661 -1 c-1446 -1 -1665 -3 -1689 -16z"/>
 <path d="M65 7196 c-53 -23 -67 -57 -63 -150 2 -65 9 -92 32 -136 47 -92 118 -154 217 -190 78 -29 129 -27 160 8 56 61 57 58 -26 71 -142 21 -248 98 -279 202 -20 66 -20 84 0 103 14 14 79 16 564 16 485 0 550 -2 564 -16 20 -19 20 -37 0 -103 -31 -104 -137 -181 -279 -202 -83 -13 -82 -10 -26 -71 19 -22 34 -28 66 -28 43 0 130 28 172 55 106 70 173 185 175 302 1 81 -17 118 -69 139 -47 20 -1163 20 -1208 0z"/>
 <path d="M12980 6460 l0 -490 755 0 755 0 0 490 0 490 -755 0 -755 0 0 -490z m1430 30 c0 -209 -3 -380 -7 -380 -5 0 -24 15 -44 33 -43 37 -80 70 -135 114 -21 17 -139 115 -262 217 -122 102 -225 186 -227 186 -5 0 -20 -12 -80 -65 -13 -11 -40 -34 -61 -51 -101 -83 -472 -391 -494 -411 -14 -13 -28 -23 -32 -23 -5 0 -8 171 -8 380 l0 380 675 0 675 0 0 -380z m-635 37 c15 -12 37 -31 50 -42 13 -12 41 -35 62 -53 21 -17 115 -96 208 -174 94 -79 188 -157 210 -175 l40 -32 -609 -1 -609 0 26 24 c14 13 35 30 45 38 10 7 43 34 73 60 144 127 464 386 470 382 4 -2 20 -14 34 -27z"/>
 <path d="M533 6760 c-99 -46 -169 -127 -215 -245 -20 -51 -23 -78 -23 -185 0 -134 13 -187 71 -286 60 -102 194 -184 298 -184 117 0 236 71 306 181 103 160 105 420 4 572 -106 160 -287 221 -441 147z m205 -75 c64 -19 136 -87 174 -165 78 -159 45 -378 -73 -484 -64 -57 -106 -76 -171 -76 -174 0 -313 217 -278 435 22 135 111 259 208 289 61 19 78 19 140 1z"/>
 </g>
<g id="layer105" fill="#29aae1" stroke="none">
 <path d="M9285 15974 c-18 -19 -25 -38 -25 -65 0 -22 5 -39 10 -39 6 0 10 -4 10 -9 0 -9 44 -87 185 -331 44 -74 94 -162 112 -195 19 -33 45 -78 59 -100 13 -22 36 -62 50 -90 15 -27 30 -52 34 -55 4 -3 9 -10 11 -16 2 -6 51 -92 109 -192 58 -100 110 -190 115 -199 61 -106 203 -352 220 -381 6 -9 37 -64 70 -122 33 -58 68 -118 77 -135 10 -16 30 -52 45 -79 16 -27 33 -56 38 -65 6 -9 28 -47 50 -86 21 -38 41 -72 44 -75 3 -3 17 -25 31 -50 13 -25 39 -70 57 -100 17 -30 41 -71 52 -91 l20 -36 -53 -94 c-29 -52 -78 -137 -108 -189 -31 -52 -83 -143 -117 -202 -33 -59 -70 -122 -80 -140 -11 -18 -38 -64 -59 -103 -45 -80 -167 -293 -181 -315 -5 -8 -57 -98 -115 -200 -58 -102 -110 -192 -116 -200 -12 -18 -209 -360 -279 -485 -28 -49 -64 -112 -81 -140 -16 -27 -44 -77 -62 -109 -18 -32 -38 -66 -43 -75 -6 -9 -37 -63 -70 -121 -33 -58 -64 -113 -70 -122 -5 -10 -38 -67 -73 -128 l-63 -110 -1294 0 c-799 0 -1303 -4 -1319 -10 -14 -5 -33 -24 -42 -41 -13 -27 -14 -39 -5 -70 7 -21 20 -43 31 -49 13 -7 457 -9 1362 -8 l1343 3 30 23 c16 13 41 44 56 70 25 45 120 210 162 282 11 19 37 64 57 100 20 36 46 81 58 100 11 19 44 76 71 125 58 103 156 273 170 295 6 8 29 49 52 90 23 41 63 111 89 155 26 44 59 100 73 125 80 140 141 246 192 335 32 55 84 145 115 200 31 55 66 116 78 135 11 19 39 67 60 105 51 90 169 295 181 315 6 8 34 58 64 110 29 52 77 136 107 185 42 72 54 101 58 146 5 61 9 52 -98 234 -29 50 -79 137 -112 195 -33 58 -86 150 -119 205 -32 55 -72 125 -89 155 -16 30 -41 73 -54 95 -14 22 -43 72 -64 110 -52 93 -169 296 -182 315 -5 8 -22 38 -38 65 -16 28 -38 66 -49 85 -11 19 -43 73 -69 120 -27 47 -53 93 -59 102 -5 9 -34 59 -63 110 -64 113 -110 191 -187 323 -32 55 -66 114 -75 130 -50 87 -68 117 -113 195 -59 101 -69 110 -119 110 -29 0 -45 -7 -63 -26z"/>
 <path d="M1542 7848 c-18 -11 -45 -41 -60 -66 -15 -26 -31 -54 -37 -63 -5 -9 -26 -44 -45 -79 -19 -35 -41 -72 -47 -84 -37 -63 3 -146 70 -146 55 0 64 10 164 193 l48 87 1597 0 1598 0 22 -38 c13 -21 29 -47 35 -57 7 -11 26 -45 43 -75 17 -30 42 -73 55 -95 14 -22 37 -62 51 -90 15 -27 30 -51 35 -53 5 -2 9 -7 9 -12 0 -4 24 -50 54 -101 121 -213 181 -316 299 -519 11 -19 34 -59 51 -88 17 -30 36 -61 41 -70 6 -9 57 -99 115 -200 58 -100 110 -190 115 -200 6 -9 28 -48 50 -87 21 -38 42 -72 45 -75 4 -3 9 -9 11 -15 5 -11 95 -172 109 -195 6 -8 28 -46 49 -83 l39 -68 -94 -162 c-52 -89 -98 -169 -104 -177 -5 -8 -22 -37 -38 -65 -16 -27 -38 -66 -49 -85 -11 -19 -36 -62 -55 -95 -19 -33 -58 -100 -87 -148 -28 -49 -51 -92 -51 -97 0 -5 -4 -10 -8 -12 -4 -1 -26 -34 -47 -73 -22 -38 -44 -77 -50 -86 -5 -9 -22 -38 -38 -65 -15 -27 -54 -94 -86 -149 -64 -108 -154 -264 -160 -280 -2 -5 -8 -14 -13 -20 -16 -18 -158 -266 -158 -275 0 -4 -4 -10 -8 -12 -4 -1 -26 -34 -47 -73 -22 -38 -44 -77 -50 -86 -5 -9 -21 -36 -34 -60 -13 -24 -43 -75 -66 -114 -59 -100 -149 -254 -171 -295 -10 -19 -23 -39 -27 -45 -16 -20 -147 -251 -153 -267 -5 -17 -81 -18 -1397 -18 -1079 -1 -1396 -3 -1408 -13 -44 -34 -48 -106 -8 -143 20 -18 65 -19 1438 -21 l1416 -3 39 23 c36 21 51 40 111 147 14 25 38 68 55 95 17 28 42 70 55 95 14 25 51 88 82 140 30 52 76 131 102 175 25 44 50 88 56 97 5 9 48 81 94 160 45 79 92 159 104 178 11 19 45 78 75 130 31 52 90 154 132 225 42 72 92 157 111 190 19 33 39 68 44 77 6 9 24 40 41 70 17 29 40 69 51 88 11 19 36 62 55 95 19 33 59 101 88 150 29 50 78 133 108 185 31 52 70 120 88 150 18 30 56 96 84 145 28 50 76 132 106 184 78 135 77 150 -23 321 -101 173 -132 227 -176 305 -29 50 -56 98 -62 107 -5 9 -24 40 -41 70 -17 29 -40 69 -51 88 -11 19 -43 73 -69 120 -27 47 -53 93 -59 102 -5 9 -29 50 -51 90 -62 110 -173 301 -184 318 -5 8 -21 35 -35 60 -14 25 -38 68 -55 95 -17 28 -43 72 -58 99 -15 27 -32 56 -37 65 -12 19 -127 219 -138 241 -4 8 -30 53 -57 100 -28 47 -67 115 -88 152 -25 46 -48 73 -73 87 -37 21 -40 21 -1695 20 -1646 -1 -1659 -1 -1692 -21z"/>
 <path d="M65 7196 c-53 -23 -67 -57 -63 -150 2 -65 9 -92 32 -136 47 -92 118 -154 217 -190 78 -29 129 -27 160 8 56 61 57 58 -26 71 -142 21 -248 98 -279 202 -20 66 -20 84 0 103 14 14 79 16 564 16 485 0 550 -2 564 -16 20 -19 20 -37 0 -103 -31 -104 -137 -181 -279 -202 -83 -13 -82 -10 -26 -71 19 -22 34 -28 66 -28 43 0 130 28 172 55 106 70 173 185 175 302 1 81 -17 118 -69 139 -47 20 -1163 20 -1208 0z"/>
 <path d="M533 6760 c-99 -46 -169 -127 -215 -245 -20 -51 -23 -78 -23 -185 0 -134 13 -187 71 -286 60 -102 194 -184 298 -184 117 0 236 71 306 181 103 160 105 420 4 572 -106 160 -287 221 -441 147z m205 -75 c64 -19 136 -87 174 -165 78 -159 45 -378 -73 -484 -64 -57 -106 -76 -171 -76 -174 0 -313 217 -278 435 22 135 111 259 208 289 61 19 78 19 140 1z"/>
 </g>
<g id="layer106" fill="#ff7bab" stroke="none">
 <path d="M1542 7848 c-18 -11 -45 -41 -60 -66 -15 -26 -31 -54 -37 -63 -5 -9 -26 -44 -45 -79 -19 -35 -41 -72 -47 -84 -37 -63 3 -146 70 -146 55 0 64 10 164 193 l48 87 1597 0 1598 0 22 -38 c13 -21 29 -47 35 -57 7 -11 26 -45 43 -75 17 -30 42 -73 55 -95 14 -22 37 -62 51 -90 15 -27 30 -51 35 -53 5 -2 9 -7 9 -12 0 -4 24 -50 54 -101 121 -213 181 -316 299 -519 11 -19 34 -59 51 -88 17 -30 36 -61 41 -70 6 -9 57 -99 115 -200 58 -100 110 -190 115 -200 6 -9 28 -48 50 -87 21 -38 42 -72 45 -75 4 -3 9 -9 11 -15 5 -11 95 -172 109 -195 6 -8 28 -46 49 -83 l39 -68 -94 -162 c-52 -89 -98 -169 -104 -177 -5 -8 -22 -37 -38 -65 -16 -27 -38 -66 -49 -85 -11 -19 -36 -62 -55 -95 -19 -33 -58 -100 -87 -148 -28 -49 -51 -92 -51 -97 0 -5 -4 -10 -8 -12 -4 -1 -26 -34 -47 -73 -22 -38 -44 -77 -50 -86 -5 -9 -22 -38 -38 -65 -15 -27 -54 -94 -86 -149 -64 -108 -154 -264 -160 -280 -2 -5 -8 -14 -13 -20 -16 -18 -158 -266 -158 -275 0 -4 -4 -10 -8 -12 -4 -1 -26 -34 -47 -73 -22 -38 -44 -77 -50 -86 -5 -9 -21 -36 -34 -60 -13 -24 -43 -75 -66 -114 -59 -100 -149 -254 -171 -295 -10 -19 -23 -39 -27 -45 -16 -20 -147 -251 -153 -267 -5 -17 -81 -18 -1397 -18 -1079 -1 -1396 -3 -1408 -13 -44 -34 -48 -106 -8 -143 20 -18 65 -19 1438 -21 l1416 -3 39 23 c36 21 51 40 111 147 14 25 38 68 55 95 17 28 42 70 55 95 14 25 51 88 82 140 30 52 76 131 102 175 25 44 50 88 56 97 5 9 48 81 94 160 45 79 92 159 104 178 11 19 45 78 75 130 31 52 90 154 132 225 42 72 92 157 111 190 19 33 39 68 44 77 6 9 24 40 41 70 17 29 40 69 51 88 11 19 36 62 55 95 19 33 59 101 88 150 29 50 78 133 108 185 31 52 70 120 88 150 18 30 56 96 84 145 28 50 76 132 106 184 78 135 77 150 -23 321 -101 173 -132 227 -176 305 -29 50 -56 98 -62 107 -5 9 -24 40 -41 70 -17 29 -40 69 -51 88 -11 19 -43 73 -69 120 -27 47 -53 93 -59 102 -5 9 -29 50 -51 90 -62 110 -173 301 -184 318 -5 8 -21 35 -35 60 -14 25 -38 68 -55 95 -17 28 -43 72 -58 99 -15 27 -32 56 -37 65 -12 19 -127 219 -138 241 -4 8 -30 53 -57 100 -28 47 -67 115 -88 152 -25 46 -48 73 -73 87 -37 21 -40 21 -1695 20 -1646 -1 -1659 -1 -1692 -21z"/>
 <path d="M65 7196 c-53 -23 -67 -57 -63 -150 2 -65 9 -92 32 -136 47 -92 118 -154 217 -190 78 -29 129 -27 160 8 56 61 57 58 -26 71 -142 21 -248 98 -279 202 -20 66 -20 84 0 103 14 14 79 16 564 16 485 0 550 -2 564 -16 20 -19 20 -37 0 -103 -31 -104 -137 -181 -279 -202 -83 -13 -82 -10 -26 -71 19 -22 34 -28 66 -28 43 0 130 28 172 55 106 70 173 185 175 302 1 81 -17 118 -69 139 -47 20 -1163 20 -1208 0z"/>
 <path d="M533 6760 c-99 -46 -169 -127 -215 -245 -20 -51 -23 -78 -23 -185 0 -134 13 -187 71 -286 60 -102 194 -184 298 -184 117 0 236 71 306 181 103 160 105 420 4 572 -106 160 -287 221 -441 147z m205 -75 c64 -19 136 -87 174 -165 78 -159 45 -378 -73 -484 -64 -57 -106 -76 -171 -76 -174 0 -313 217 -278 435 22 135 111 259 208 289 61 19 78 19 140 1z"/>
 </g>

</svg>